{"glyphs":{"0":{"ha":746,"x_min":99,"x_max":892,"o":"m 495 12 q 632 63 568 12 q 717 186 697 114 l 862 729 q 869 777 869 754 q 844 853 869 819 q 734 904 806 904 l 496 904 q 359 853 424 904 q 275 729 294 802 l 130 186 q 123 139 123 161 q 148 63 123 96 q 258 12 185 12 l 495 12 m 389 271 q 387 256 387 264 q 395 232 387 243 q 431 215 408 215 q 475 232 454 215 q 502 271 496 248 l 602 644 q 604 659 604 652 q 596 684 604 673 q 561 701 584 701 q 517 684 538 701 q 490 644 496 667 l 389 271 m 251 -12 q 127 47 169 -12 q 99 133 99 84 q 106 186 99 158 l 252 729 q 347 869 273 811 q 503 927 420 927 l 740 927 q 865 869 822 927 q 892 782 892 831 q 885 729 892 757 l 740 186 q 644 46 718 104 q 488 -12 570 -12 l 251 -12 m 467 644 q 505 700 475 677 q 567 724 534 724 q 616 701 600 724 q 628 665 628 684 q 625 644 628 655 l 525 271 q 487 215 516 239 q 425 192 457 192 q 375 216 392 192 q 363 250 363 231 q 366 271 363 260 l 467 644 z "},"1":{"ha":475,"x_min":155,"x_max":667,"o":"m 637 904 l 321 904 l 273 724 l 375 724 l 184 12 l 399 12 l 637 904 m 415 -12 l 155 -12 l 346 701 l 244 701 l 304 927 l 667 927 l 415 -12 z "},"2":{"ha":746,"x_min":53,"x_max":873,"o":"m 476 385 l 510 385 q 714 460 618 385 q 840 644 810 536 q 849 713 849 681 q 812 828 849 778 q 649 904 757 904 l 457 904 l 409 724 l 567 724 q 616 701 600 724 q 628 665 628 684 q 625 644 628 655 q 587 588 616 612 q 524 565 557 565 l 490 565 q 286 489 382 565 q 161 305 190 413 l 83 12 l 670 12 l 718 192 l 345 192 l 376 305 q 414 361 384 338 q 476 385 444 385 m 470 361 q 426 345 447 361 q 399 305 405 328 l 374 215 l 747 215 l 686 -12 l 53 -12 l 138 305 q 274 505 170 422 q 496 588 379 588 l 530 588 q 574 605 553 588 q 602 644 595 621 q 604 659 604 652 q 596 684 604 673 q 561 701 584 701 l 380 701 l 440 927 l 655 927 q 833 844 772 927 q 873 720 873 789 q 863 644 873 684 q 726 444 831 527 q 504 361 621 361 l 470 361 z "},"3":{"ha":746,"x_min":53,"x_max":892,"o":"m 476 385 q 526 361 509 385 q 537 326 537 345 q 534 305 537 316 l 525 271 q 487 215 516 239 q 425 192 457 192 l 131 192 l 83 12 l 495 12 q 632 63 568 12 q 717 186 697 114 l 766 373 q 769 394 769 384 q 714 475 769 438 q 821 576 806 519 l 862 729 q 869 777 869 754 q 844 853 869 819 q 734 904 806 904 l 321 904 l 273 724 l 567 724 q 616 701 600 724 q 628 665 628 684 q 625 644 628 655 q 587 588 616 612 q 524 565 557 565 l 366 565 l 318 385 l 476 385 m 470 361 l 289 361 l 349 588 l 530 588 q 574 605 553 588 q 602 644 595 621 q 604 659 604 652 q 596 684 604 673 q 561 701 584 701 l 244 701 l 304 927 l 740 927 q 865 869 822 927 q 892 782 892 831 q 885 729 892 757 l 844 576 q 762 475 825 506 q 795 410 795 452 q 789 373 795 393 l 740 186 q 644 46 718 104 q 488 -12 570 -12 l 53 -12 l 114 215 l 431 215 q 475 232 454 215 q 502 271 496 248 l 511 305 q 513 320 513 313 q 505 345 513 334 q 470 361 493 361 z "},"4":{"ha":746,"x_min":108,"x_max":938,"o":"m 187 404 l 137 215 l 510 215 l 456 12 l 670 12 l 800 497 l 585 497 l 549 361 l 382 361 l 695 724 l 861 724 l 909 904 l 753 904 q 531 808 621 904 l 187 404 m 515 820 q 760 927 615 927 l 938 927 l 878 701 l 703 701 l 429 385 l 532 385 l 569 520 l 829 520 l 686 -12 l 426 -12 l 481 192 l 108 192 l 166 410 l 515 820 z "},"5":{"ha":746,"x_min":53,"x_max":802,"o":"m 476 385 q 526 361 509 385 q 537 326 537 345 q 534 305 537 316 l 525 271 q 487 215 516 239 q 425 192 457 192 l 131 192 l 83 12 l 410 12 q 614 87 518 12 q 739 271 711 163 l 749 305 q 758 374 758 342 q 722 489 758 439 q 558 565 666 565 l 445 565 l 488 724 l 725 724 l 773 904 l 321 904 l 182 385 l 476 385 m 470 361 l 153 361 l 304 927 l 802 927 l 742 701 l 505 701 l 474 588 l 564 588 q 743 505 682 588 q 783 381 783 450 q 772 305 783 345 l 762 271 q 626 71 731 154 q 404 -12 521 -12 l 53 -12 l 114 215 l 431 215 q 475 232 454 215 q 502 271 496 248 l 511 305 q 513 320 513 313 q 505 345 513 334 q 470 361 493 361 z "},"6":{"ha":746,"x_min":99,"x_max":802,"o":"m 414 361 l 389 271 q 387 256 387 264 q 395 232 387 243 q 431 215 408 215 q 475 232 454 215 q 502 271 496 248 l 511 305 q 513 320 513 313 q 505 345 513 334 q 470 361 493 361 l 414 361 m 495 12 q 632 63 568 12 q 717 186 697 114 l 771 390 q 778 437 778 415 q 753 514 778 480 q 643 565 715 565 l 445 565 l 467 644 q 505 700 475 677 q 567 724 534 724 l 725 724 l 773 904 l 496 904 q 359 853 424 904 q 275 729 294 802 l 130 186 q 123 139 123 161 q 148 63 123 96 q 258 12 185 12 l 495 12 m 476 385 q 526 361 509 385 q 537 326 537 345 q 534 305 537 316 l 525 271 q 487 215 516 239 q 425 192 457 192 q 375 216 392 192 q 363 250 363 231 q 366 271 363 260 l 397 385 l 476 385 m 251 -12 q 127 47 169 -12 q 99 133 99 84 q 106 186 99 158 l 252 729 q 347 869 273 811 q 503 927 420 927 l 802 927 l 742 701 l 561 701 q 517 684 538 701 q 490 644 496 667 l 474 588 l 649 588 q 774 530 731 588 q 802 443 802 492 q 794 390 802 418 l 740 186 q 644 46 718 104 q 488 -12 570 -12 l 251 -12 z "},"7":{"ha":678,"x_min":116,"x_max":870,"o":"m 155 12 l 368 12 l 790 714 l 841 904 l 321 904 l 273 724 l 583 724 l 155 12 m 545 701 l 244 701 l 304 927 l 870 927 l 812 710 l 378 -12 l 116 -12 l 545 701 z "},"8":{"ha":746,"x_min":99,"x_max":892,"o":"m 431 215 q 475 232 454 215 q 502 271 496 248 l 511 305 q 513 320 513 313 q 505 345 513 334 q 470 361 493 361 q 426 345 447 361 q 399 305 405 328 l 389 271 q 387 256 387 264 q 395 232 387 243 q 431 215 408 215 m 530 588 q 574 605 553 588 q 602 644 595 621 q 604 659 604 652 q 596 684 604 673 q 561 701 584 701 q 517 684 538 701 q 490 644 496 667 q 487 629 487 636 q 495 605 487 615 q 530 588 507 588 m 496 904 q 359 853 424 904 q 275 729 294 802 l 234 576 q 231 555 231 566 q 287 475 231 511 q 179 373 195 430 l 130 186 q 123 139 123 161 q 148 63 123 96 q 258 12 185 12 l 495 12 q 632 63 568 12 q 717 186 697 114 l 766 373 q 769 394 769 384 q 714 475 769 438 q 821 576 806 519 l 862 729 q 869 777 869 754 q 844 853 869 819 q 734 904 806 904 l 496 904 m 425 192 q 375 216 392 192 q 363 250 363 231 q 366 271 363 260 l 376 305 q 414 361 384 338 q 476 385 444 385 q 526 361 509 385 q 537 326 537 345 q 534 305 537 316 l 525 271 q 487 215 516 239 q 425 192 457 192 m 524 565 q 475 589 492 565 q 464 623 464 604 q 467 644 464 633 q 505 700 475 677 q 567 724 534 724 q 616 701 600 724 q 628 665 628 684 q 625 644 628 655 q 587 588 616 612 q 524 565 557 565 m 740 927 q 865 869 822 927 q 892 782 892 831 q 885 729 892 757 l 844 576 q 762 475 825 506 q 795 410 795 452 q 789 373 795 393 l 740 186 q 644 46 718 104 q 488 -12 570 -12 l 251 -12 q 127 47 169 -12 q 99 133 99 84 q 106 186 99 158 l 156 373 q 239 475 175 444 q 205 539 205 497 q 211 576 205 556 l 252 729 q 347 869 273 811 q 503 927 420 927 l 740 927 z "},"9":{"ha":746,"x_min":189,"x_max":892,"o":"m 578 554 l 602 644 q 604 659 604 652 q 596 684 604 673 q 561 701 584 701 q 517 684 538 701 q 490 644 496 667 l 480 610 q 478 595 478 603 q 486 571 478 582 q 522 554 498 554 l 578 554 m 496 904 q 359 853 424 904 q 275 729 294 802 l 220 526 q 214 478 214 500 q 239 402 214 435 q 349 351 276 351 l 547 351 l 525 271 q 487 215 516 239 q 425 192 457 192 l 267 192 l 218 12 l 495 12 q 632 63 568 12 q 717 186 697 114 l 862 729 q 869 777 869 754 q 844 853 869 819 q 734 904 806 904 l 496 904 m 515 531 q 466 555 483 531 q 454 589 454 570 q 457 610 454 600 l 467 644 q 505 700 475 677 q 567 724 534 724 q 616 701 600 724 q 628 665 628 684 q 625 644 628 655 l 595 531 l 515 531 m 740 927 q 865 869 822 927 q 892 782 892 831 q 885 729 892 757 l 740 186 q 644 46 718 104 q 488 -12 570 -12 l 189 -12 l 250 215 l 431 215 q 475 232 454 215 q 502 271 496 248 l 517 328 l 342 328 q 218 386 260 328 q 190 472 190 423 q 197 526 190 497 l 252 729 q 347 869 273 811 q 503 927 420 927 l 740 927 z "},"\u0000":{"ha":102,"x_min":0,"x_max":0,"o":""}," ":{"ha":678,"x_min":0,"x_max":0,"o":""},"!":{"ha":373,"x_min":53,"x_max":565,"o":"m 83 12 l 297 12 l 345 192 l 131 192 l 83 12 m 370 283 l 536 904 l 321 904 l 155 283 l 370 283 m 114 215 l 374 215 l 313 -12 l 53 -12 l 114 215 m 126 260 l 304 927 l 565 927 l 387 260 l 126 260 z "},"\"":{"ha":678,"x_min":255,"x_max":870,"o":"m 288 780 q 279 711 279 745 q 286 650 279 680 l 300 588 l 387 588 l 435 650 q 503 780 485 715 l 536 904 l 321 904 l 288 780 m 593 780 q 584 711 584 745 q 591 650 584 680 l 606 588 l 692 588 l 741 650 q 808 780 790 715 l 841 904 l 627 904 l 593 780 m 304 927 l 565 927 l 526 780 q 452 639 507 709 l 396 565 l 279 565 l 262 639 q 255 704 255 671 q 265 780 255 742 l 304 927 m 610 927 l 870 927 l 831 780 q 758 639 812 709 l 701 565 l 585 565 l 568 639 q 560 704 560 671 q 570 780 560 742 l 610 927 z "},"#":{"ha":916,"x_min":108,"x_max":1053,"o":"m 551 497 l 530 418 l 609 418 l 630 497 l 551 497 m 578 215 l 551 113 l 765 113 l 792 215 l 894 215 l 942 395 l 840 395 l 874 520 l 976 520 l 1024 701 l 922 701 l 949 802 l 735 802 l 708 701 l 583 701 l 610 802 l 396 802 l 369 701 l 267 701 l 219 520 l 321 520 l 287 395 l 185 395 l 137 215 l 239 215 l 212 113 l 426 113 l 453 215 l 578 215 m 660 520 l 626 395 l 501 395 l 535 520 l 660 520 m 470 192 l 443 90 l 182 90 l 210 192 l 108 192 l 168 418 l 270 418 l 291 497 l 189 497 l 250 724 l 352 724 l 379 825 l 640 825 l 612 724 l 691 724 l 718 825 l 979 825 l 951 724 l 1053 724 l 992 497 l 890 497 l 869 418 l 971 418 l 911 192 l 809 192 l 782 90 l 522 90 l 549 192 l 470 192 z "},"$":{"ha":746,"x_min":71,"x_max":852,"o":"m 506 276 q 460 260 484 260 l 149 260 l 100 79 l 270 79 l 252 12 l 467 12 l 485 82 q 635 151 569 98 q 753 322 726 222 q 762 387 762 357 q 728 494 762 447 q 575 565 675 565 l 490 565 q 462 578 471 565 q 456 598 456 587 q 457 610 456 604 q 479 643 463 629 q 515 656 496 656 l 774 656 l 823 836 l 687 836 l 705 904 l 491 904 l 476 848 l 473 831 q 352 770 406 812 q 243 610 268 704 q 234 550 234 578 q 267 451 234 494 q 408 385 315 385 l 493 385 q 530 368 517 385 q 532 366 532 367 q 541 339 541 354 q 538 322 541 331 q 509 278 532 296 q 506 276 508 277 m 494 292 q 496 294 496 294 q 515 322 511 306 q 517 333 517 328 q 511 350 517 342 q 510 352 511 351 q 487 361 502 361 l 402 361 q 245 435 299 361 q 210 543 210 482 q 220 610 210 575 q 340 787 248 713 q 453 847 399 833 l 474 927 l 734 927 l 716 859 l 852 859 l 791 633 l 509 633 q 491 626 499 633 q 480 610 483 620 q 479 604 479 607 q 482 595 479 599 q 496 588 487 588 l 581 588 q 749 510 691 588 q 786 393 786 458 q 776 322 786 359 q 648 134 747 212 q 503 63 574 76 l 483 -12 l 222 -12 l 241 56 l 71 56 l 132 283 l 466 283 q 494 292 481 283 z "},"%":{"ha":1085,"x_min":77,"x_max":1253,"o":"m 471 576 q 469 562 469 569 q 477 537 469 548 q 513 520 490 520 q 557 537 536 520 q 584 576 578 553 l 602 644 q 604 659 604 652 q 596 684 604 673 q 561 701 584 701 q 517 684 538 701 q 490 644 496 667 l 471 576 m 728 271 q 726 256 726 264 q 734 232 726 243 q 770 215 747 215 q 814 232 793 215 q 841 271 835 248 l 859 339 q 861 354 861 347 q 853 379 861 368 q 818 395 841 395 q 774 379 795 395 q 747 339 753 362 l 728 271 m 127 12 l 370 12 l 464 112 q 487 63 475 79 q 597 12 524 12 l 834 12 q 971 63 907 12 q 1056 186 1036 114 l 1119 424 q 1126 471 1126 449 q 1101 548 1126 514 q 991 599 1064 599 l 919 599 l 1204 904 l 960 904 l 867 804 q 844 853 855 838 q 734 904 806 904 l 496 904 q 359 853 424 904 q 275 729 294 802 l 211 492 q 205 445 205 467 q 229 368 205 402 q 339 317 267 317 l 412 317 l 127 12 m 467 644 q 505 700 475 677 q 567 724 534 724 q 616 701 600 724 q 628 665 628 684 q 625 644 628 655 l 607 576 q 568 520 598 544 q 506 497 538 497 q 456 521 473 497 q 446 555 446 536 q 448 576 446 566 l 467 644 m 724 339 q 762 395 732 372 q 824 418 791 418 q 874 395 857 418 q 885 360 885 380 q 882 339 885 350 l 864 271 q 826 215 855 239 q 764 192 796 192 q 714 216 731 192 q 703 250 703 231 q 705 271 703 260 l 724 339 m 362 294 l 333 294 q 209 352 251 294 q 180 439 180 390 q 188 492 180 464 l 252 729 q 347 869 273 811 q 503 927 420 927 l 740 927 q 865 869 822 927 q 880 847 878 851 l 954 927 l 1253 927 l 968 622 l 998 622 q 1122 564 1080 622 q 1149 477 1149 526 q 1142 424 1149 452 l 1079 186 q 983 46 1057 104 q 827 -12 909 -12 l 590 -12 q 466 47 508 -12 q 451 68 453 64 l 376 -12 l 77 -12 l 362 294 z "},"&":{"ha":746,"x_min":99,"x_max":847,"o":"m 441 356 q 426 345 439 355 q 399 305 405 328 l 389 271 q 387 256 387 264 q 395 232 387 243 q 431 215 408 215 l 436 215 l 441 356 m 667 12 l 680 385 l 770 385 l 818 565 l 524 565 q 475 589 492 565 q 464 623 464 604 q 467 644 464 633 q 505 700 475 677 q 567 724 534 724 l 725 724 l 773 904 l 496 904 q 359 853 424 904 q 275 729 294 802 l 234 576 q 231 555 231 566 q 287 475 231 511 q 179 373 195 430 l 130 186 q 123 139 123 161 q 148 63 123 96 q 258 12 185 12 l 667 12 m 458 192 l 425 192 q 375 216 392 192 q 363 250 363 231 q 366 271 363 260 l 376 305 q 414 361 384 338 q 466 385 432 376 l 458 192 m 251 -12 q 127 47 169 -12 q 99 133 99 84 q 106 186 99 158 l 156 373 q 239 475 175 444 q 205 539 205 497 q 211 576 205 556 l 252 729 q 347 869 273 811 q 503 927 420 927 l 802 927 l 742 701 l 561 701 q 517 684 538 701 q 490 644 496 667 q 487 629 487 636 q 495 605 487 615 q 530 588 507 588 l 847 588 l 787 361 l 702 361 l 689 -12 l 251 -12 z "},"'":{"ha":373,"x_min":255,"x_max":565,"o":"m 288 780 q 279 711 279 745 q 286 650 279 680 l 300 588 l 387 588 l 435 650 q 503 780 485 715 l 536 904 l 321 904 l 288 780 m 304 927 l 565 927 l 526 780 q 452 639 507 709 l 396 565 l 279 565 l 262 639 q 255 704 255 671 q 265 780 255 742 l 304 927 z "},"(":{"ha":509,"x_min":81,"x_max":719,"o":"m 406 124 q 357 148 374 124 q 345 183 345 163 q 348 203 345 193 l 484 712 q 523 768 493 745 q 585 791 553 791 l 642 791 l 690 972 l 515 972 q 377 921 442 972 q 293 797 313 869 l 111 119 q 104 71 104 94 q 130 -5 104 28 q 239 -56 167 -56 l 414 -56 l 463 124 l 406 124 m 412 147 l 492 147 l 431 -79 l 233 -79 q 109 -21 151 -79 q 81 65 81 17 q 88 119 81 90 l 270 797 q 365 937 292 879 q 521 995 439 995 l 719 995 l 659 768 l 579 768 q 535 752 556 768 q 507 712 513 735 l 371 203 q 369 189 369 196 q 377 164 369 175 q 412 147 389 147 z "},")":{"ha":509,"x_min":35,"x_max":673,"o":"m 169 124 l 113 124 l 64 -56 l 239 -56 q 377 -5 312 -56 q 461 119 441 46 l 643 797 q 650 844 650 822 q 625 921 650 887 q 515 972 587 972 l 340 972 l 292 791 l 348 791 q 397 768 380 791 q 408 733 408 753 q 406 712 408 723 l 269 203 q 231 148 261 171 q 169 124 201 124 m 175 147 q 219 164 198 147 q 246 203 240 180 l 382 712 q 385 727 385 720 q 377 752 385 741 q 342 768 365 768 l 262 768 l 323 995 l 521 995 q 646 937 603 995 q 673 850 673 899 q 666 797 673 825 l 484 119 q 389 -21 462 37 q 233 -79 315 -79 l 35 -79 l 96 147 l 175 147 z "},"*":{"ha":848,"x_min":220,"x_max":965,"o":"m 941 654 l 937 869 l 759 850 l 791 972 l 577 972 l 545 850 l 377 869 l 258 654 l 395 638 l 256 511 l 408 389 l 567 534 l 649 389 l 866 511 l 794 638 l 941 654 m 834 621 l 899 506 l 636 357 l 557 497 l 403 357 l 220 506 l 346 621 l 223 634 l 367 894 l 528 876 l 560 995 l 821 995 l 789 876 l 960 894 l 965 634 l 834 621 z "},"+":{"ha":712,"x_min":153,"x_max":813,"o":"m 307 215 l 521 215 l 566 385 l 736 385 l 784 565 l 614 565 l 660 734 l 446 734 l 400 565 l 231 565 l 182 385 l 352 385 l 307 215 m 323 361 l 153 361 l 214 588 l 383 588 l 429 758 l 689 758 l 644 588 l 813 588 l 753 361 l 583 361 l 538 192 l 277 192 l 323 361 z "},",":{"ha":373,"x_min":7,"x_max":374,"o":"m 345 192 l 131 192 l 37 -158 l 77 -158 q 214 -107 149 -158 q 298 17 279 -56 l 345 192 m 321 17 q 225 -123 299 -65 q 70 -181 152 -181 l 7 -181 l 114 215 l 374 215 l 321 17 z "},"-":{"ha":678,"x_min":153,"x_max":779,"o":"m 702 385 l 750 565 l 231 565 l 182 385 l 702 385 m 153 361 l 214 588 l 779 588 l 719 361 l 153 361 z "},".":{"ha":373,"x_min":53,"x_max":374,"o":"m 83 12 l 297 12 l 345 192 l 131 192 l 83 12 m 114 215 l 374 215 l 313 -12 l 53 -12 l 114 215 z "},"/":{"ha":746,"x_min":47,"x_max":943,"o":"m 903 904 l 690 904 l 88 12 l 301 12 l 903 904 m 309 -12 l 47 -12 l 682 927 l 943 927 l 309 -12 z "},":":{"ha":373,"x_min":53,"x_max":474,"o":"m 83 12 l 297 12 l 345 192 l 131 192 l 83 12 m 182 385 l 397 385 l 445 565 l 231 565 l 182 385 m 114 215 l 374 215 l 313 -12 l 53 -12 l 114 215 m 214 588 l 474 588 l 414 361 l 153 361 l 214 588 z "},";":{"ha":373,"x_min":7,"x_max":474,"o":"m 182 385 l 397 385 l 445 565 l 231 565 l 182 385 m 345 192 l 131 192 l 37 -158 l 77 -158 q 214 -107 149 -158 q 298 17 279 -56 l 345 192 m 214 588 l 474 588 l 414 361 l 153 361 l 214 588 m 321 17 q 225 -123 299 -65 q 70 -181 152 -181 l 7 -181 l 114 215 l 374 215 l 321 17 z "},"<":{"ha":678,"x_min":188,"x_max":850,"o":"m 410 249 l 649 249 l 459 509 l 789 768 l 550 768 l 220 509 l 410 249 m 188 509 l 547 791 l 850 791 l 492 509 l 699 226 l 395 226 l 188 509 z "},"=":{"ha":678,"x_min":117,"x_max":834,"o":"m 756 588 l 805 768 l 286 768 l 237 588 l 756 588 m 665 249 l 714 429 l 195 429 l 146 249 l 665 249 m 208 565 l 269 791 l 834 791 l 773 565 l 208 565 m 117 226 l 178 452 l 743 452 l 682 226 l 117 226 z "},">":{"ha":678,"x_min":100,"x_max":763,"o":"m 730 509 l 541 768 l 302 768 l 492 509 l 162 249 l 401 249 l 730 509 m 404 226 l 100 226 l 459 509 l 252 791 l 556 791 l 763 509 l 404 226 z "},"?":{"ha":746,"x_min":121,"x_max":873,"o":"m 437 283 l 452 339 q 510 385 465 385 q 714 460 618 385 q 840 644 810 536 q 849 713 849 681 q 812 828 849 778 q 649 904 757 904 l 321 904 l 273 724 l 567 724 q 616 701 600 724 q 628 665 628 684 q 625 644 628 655 q 587 588 616 612 q 524 565 557 565 q 247 373 298 565 l 223 283 l 437 283 m 199 192 l 151 12 l 365 12 l 413 192 l 199 192 m 194 260 l 224 373 q 530 588 281 588 q 574 605 553 588 q 602 644 595 621 q 604 659 604 652 q 596 684 604 673 q 561 701 584 701 l 244 701 l 304 927 l 655 927 q 833 844 772 927 q 873 720 873 789 q 863 644 873 684 q 726 444 831 527 q 504 361 621 361 q 475 339 481 361 l 454 260 l 194 260 m 442 215 l 381 -12 l 121 -12 l 182 215 l 442 215 z "},"@":{"ha":746,"x_min":99,"x_max":892,"o":"m 743 283 l 862 729 q 869 777 869 754 q 844 853 869 819 q 734 904 806 904 l 496 904 q 359 853 424 904 q 275 729 294 802 l 130 186 q 123 139 123 161 q 148 63 123 96 q 258 12 185 12 l 534 12 l 583 192 l 425 192 q 375 216 392 192 q 365 250 365 229 q 370 283 365 264 l 743 283 m 561 701 q 517 684 538 701 q 490 644 496 667 l 447 486 l 559 486 l 602 644 q 604 659 604 652 q 596 684 604 673 q 561 701 584 701 m 387 260 q 386 254 386 257 q 395 232 386 245 q 431 215 408 215 l 612 215 l 551 -12 l 251 -12 q 127 47 169 -12 q 99 133 99 84 q 106 186 99 158 l 252 729 q 347 869 273 811 q 503 927 420 927 l 740 927 q 865 869 822 927 q 892 782 892 831 q 885 729 892 757 l 760 260 l 387 260 m 567 724 q 616 701 600 724 q 628 665 628 684 q 625 644 628 655 l 576 463 l 418 463 l 467 644 q 505 700 475 677 q 567 724 534 724 z "},"A":{"ha":814,"x_min":16,"x_max":828,"o":"m 354 192 l 536 565 l 323 565 l 52 12 l 769 12 l 804 828 l 804 836 q 717 904 804 904 l 321 904 l 273 724 l 576 724 l 564 192 l 354 192 m 548 541 l 389 215 l 540 215 l 548 541 m 549 588 l 552 701 l 244 701 l 304 927 l 723 927 q 828 843 828 927 l 828 833 l 791 -12 l 16 -12 l 310 588 l 549 588 z "},"B":{"ha":746,"x_min":53,"x_max":892,"o":"m 231 565 l 83 12 l 495 12 q 632 63 568 12 q 717 186 697 114 l 766 373 q 769 394 769 384 q 714 475 769 438 q 821 576 806 519 l 862 729 q 869 777 869 754 q 844 853 869 819 q 734 904 806 904 l 321 904 l 273 724 l 567 724 q 616 701 600 724 q 628 665 628 684 q 625 644 628 655 q 587 588 616 612 q 524 565 557 565 l 231 565 m 414 361 l 374 215 l 431 215 q 475 232 454 215 q 502 271 496 248 l 511 305 q 513 320 513 313 q 505 345 513 334 q 470 361 493 361 l 414 361 m 530 588 q 574 605 553 588 q 602 644 595 621 q 604 659 604 652 q 596 684 604 673 q 561 701 584 701 l 244 701 l 304 927 l 740 927 q 865 869 822 927 q 892 782 892 831 q 885 729 892 757 l 844 576 q 762 475 825 506 q 795 410 795 452 q 789 373 795 393 l 740 186 q 644 46 718 104 q 488 -12 570 -12 l 53 -12 l 214 588 l 530 588 m 476 385 q 526 361 509 385 q 537 326 537 345 q 534 305 537 316 l 525 271 q 487 215 516 239 q 425 192 457 192 l 345 192 l 397 385 l 476 385 z "},"C":{"ha":678,"x_min":99,"x_max":870,"o":"m 425 192 q 375 216 392 192 q 363 250 363 231 q 366 271 363 260 l 467 644 q 505 700 475 677 q 567 724 534 724 l 793 724 l 841 904 l 496 904 q 359 853 424 904 q 275 729 294 802 l 130 186 q 123 139 123 161 q 148 63 123 96 q 258 12 185 12 l 602 12 l 650 192 l 425 192 m 431 215 l 680 215 l 618 -12 l 251 -12 q 127 47 169 -12 q 99 133 99 84 q 106 186 99 158 l 252 729 q 347 869 273 811 q 503 927 420 927 l 870 927 l 810 701 l 561 701 q 517 684 538 701 q 490 644 496 667 l 389 271 q 387 256 387 264 q 395 232 387 243 q 431 215 408 215 z "},"D":{"ha":746,"x_min":53,"x_max":892,"o":"m 567 724 q 616 701 600 724 q 628 665 628 684 q 625 644 628 655 l 525 271 q 487 215 516 239 q 425 192 457 192 l 345 192 l 445 565 l 231 565 l 83 12 l 495 12 q 632 63 568 12 q 717 186 697 114 l 862 729 q 869 777 869 754 q 844 853 869 819 q 734 904 806 904 l 321 904 l 273 724 l 567 724 m 561 701 l 244 701 l 304 927 l 740 927 q 865 869 822 927 q 892 782 892 831 q 885 729 892 757 l 740 186 q 644 46 718 104 q 488 -12 570 -12 l 53 -12 l 214 588 l 474 588 l 374 215 l 431 215 q 475 232 454 215 q 502 271 496 248 l 602 644 q 604 659 604 652 q 596 684 604 673 q 561 701 584 701 z "},"E":{"ha":678,"x_min":53,"x_max":870,"o":"m 793 724 l 841 904 l 321 904 l 273 724 l 793 724 m 83 12 l 602 12 l 650 192 l 345 192 l 397 385 l 634 385 l 682 565 l 231 565 l 83 12 m 244 701 l 304 927 l 870 927 l 810 701 l 244 701 m 214 588 l 711 588 l 651 361 l 414 361 l 374 215 l 680 215 l 618 -12 l 53 -12 l 214 588 z "},"F":{"ha":678,"x_min":53,"x_max":870,"o":"m 231 565 l 83 12 l 297 12 l 397 385 l 634 385 l 682 565 l 231 565 m 793 724 l 841 904 l 321 904 l 273 724 l 793 724 m 711 588 l 651 361 l 414 361 l 313 -12 l 53 -12 l 214 588 l 711 588 m 244 701 l 304 927 l 870 927 l 810 701 l 244 701 z "},"G":{"ha":746,"x_min":99,"x_max":938,"o":"m 536 565 l 488 385 l 555 385 l 525 271 q 487 215 516 239 q 425 192 457 192 q 375 216 392 192 q 363 250 363 231 q 366 271 363 260 l 467 644 q 505 700 475 677 q 567 724 534 724 l 861 724 l 909 904 l 496 904 q 359 853 424 904 q 275 729 294 802 l 130 186 q 123 139 123 161 q 148 63 123 96 q 258 12 185 12 l 495 12 q 632 63 568 12 q 717 186 697 114 l 818 565 l 536 565 m 847 588 l 740 186 q 644 46 718 104 q 488 -12 570 -12 l 251 -12 q 127 47 169 -12 q 99 133 99 84 q 106 186 99 158 l 252 729 q 347 869 273 811 q 503 927 420 927 l 938 927 l 878 701 l 561 701 q 517 684 538 701 q 490 644 496 667 l 389 271 q 387 256 387 264 q 395 232 387 243 q 431 215 408 215 q 475 232 454 215 q 502 271 496 248 l 526 361 l 458 361 l 519 588 l 847 588 z "},"H":{"ha":746,"x_min":53,"x_max":938,"o":"m 551 368 l 456 12 l 670 12 l 909 904 l 694 904 l 604 565 l 445 565 l 536 904 l 321 904 l 83 12 l 297 12 l 392 368 l 551 368 m 409 345 l 313 -12 l 53 -12 l 304 927 l 565 927 l 474 588 l 587 588 l 677 927 l 938 927 l 686 -12 l 426 -12 l 522 345 l 409 345 z "},"I":{"ha":373,"x_min":53,"x_max":565,"o":"m 321 904 l 83 12 l 297 12 l 536 904 l 321 904 m 565 927 l 313 -12 l 53 -12 l 304 927 l 565 927 z "},"J":{"ha":509,"x_min":53,"x_max":701,"o":"m 288 271 q 249 215 279 239 q 187 192 220 192 l 131 192 l 83 12 l 258 12 q 395 63 330 12 q 479 186 460 114 l 671 904 l 457 904 l 288 271 m 440 927 l 701 927 l 503 186 q 407 46 480 104 q 251 -12 333 -12 l 53 -12 l 114 215 l 193 215 q 237 232 216 215 q 264 271 258 248 l 440 927 z "},"K":{"ha":814,"x_min":53,"x_max":1006,"o":"m 467 385 l 587 12 l 830 12 l 659 469 q 490 565 620 565 l 231 565 l 83 12 l 297 12 l 397 385 l 467 385 m 414 361 l 313 -12 l 53 -12 l 214 588 l 496 588 q 681 481 638 588 l 865 -12 l 566 -12 l 447 361 l 414 361 m 520 724 l 928 724 l 977 904 l 852 904 q 751 888 787 904 q 674 840 715 872 l 520 724 m 487 724 l 535 904 l 321 904 l 273 724 l 487 724 m 244 701 l 304 927 l 564 927 l 515 745 l 662 856 q 747 909 707 891 q 859 927 788 927 l 1006 927 l 945 701 l 244 701 z "},"L":{"ha":678,"x_min":53,"x_max":680,"o":"m 83 12 l 602 12 l 650 192 l 345 192 l 536 904 l 321 904 l 83 12 m 304 927 l 565 927 l 374 215 l 680 215 l 618 -12 l 53 -12 l 304 927 z "},"M":{"ha":983,"x_min":53,"x_max":1130,"o":"m 693 12 l 907 12 l 1099 729 q 1106 777 1106 754 q 1082 853 1106 819 q 971 904 1044 904 l 321 904 l 273 724 l 804 724 q 854 701 837 724 q 865 665 865 684 q 863 644 865 655 l 693 12 m 750 565 l 536 565 l 388 12 l 602 12 l 750 565 m 445 565 l 231 565 l 83 12 l 297 12 l 445 565 m 840 644 q 842 659 842 652 q 833 684 842 673 q 798 701 821 701 l 244 701 l 304 927 l 977 927 q 1102 869 1059 927 q 1130 782 1130 831 q 1122 729 1130 757 l 924 -12 l 663 -12 l 840 644 m 618 -12 l 358 -12 l 519 588 l 779 588 l 618 -12 m 313 -12 l 53 -12 l 214 588 l 474 588 l 313 -12 z "},"N":{"ha":746,"x_min":53,"x_max":892,"o":"m 456 12 l 670 12 l 862 729 q 869 777 869 754 q 844 853 869 819 q 734 904 806 904 l 321 904 l 273 724 l 567 724 q 616 701 600 724 q 628 665 628 684 q 625 644 628 655 l 456 12 m 445 565 l 231 565 l 83 12 l 297 12 l 445 565 m 602 644 q 604 659 604 652 q 596 684 604 673 q 561 701 584 701 l 244 701 l 304 927 l 740 927 q 865 869 822 927 q 892 782 892 831 q 885 729 892 757 l 686 -12 l 426 -12 l 602 644 m 313 -12 l 53 -12 l 214 588 l 474 588 l 313 -12 z "},"O":{"ha":746,"x_min":99,"x_max":892,"o":"m 495 12 q 632 63 568 12 q 717 186 697 114 l 862 729 q 869 777 869 754 q 844 853 869 819 q 734 904 806 904 l 496 904 q 359 853 424 904 q 275 729 294 802 l 130 186 q 123 139 123 161 q 148 63 123 96 q 258 12 185 12 l 495 12 m 389 271 q 387 256 387 264 q 395 232 387 243 q 431 215 408 215 q 475 232 454 215 q 502 271 496 248 l 602 644 q 604 659 604 652 q 596 684 604 673 q 561 701 584 701 q 517 684 538 701 q 490 644 496 667 l 389 271 m 251 -12 q 127 47 169 -12 q 99 133 99 84 q 106 186 99 158 l 252 729 q 347 869 273 811 q 503 927 420 927 l 740 927 q 865 869 822 927 q 892 782 892 831 q 885 729 892 757 l 740 186 q 644 46 718 104 q 488 -12 570 -12 l 251 -12 m 467 644 q 505 700 475 677 q 567 724 534 724 q 616 701 600 724 q 628 665 628 684 q 625 644 628 655 l 525 271 q 487 215 516 239 q 425 192 457 192 q 375 216 392 192 q 363 250 363 231 q 366 271 363 260 l 467 644 z "},"P":{"ha":746,"x_min":53,"x_max":892,"o":"m 567 724 q 616 701 600 724 q 628 665 628 684 q 625 644 628 655 q 587 588 616 612 q 524 565 557 565 l 231 565 l 83 12 l 297 12 l 397 385 l 595 385 q 732 436 667 385 q 817 559 797 487 l 862 729 q 869 777 869 754 q 844 853 869 819 q 734 904 806 904 l 321 904 l 273 724 l 567 724 m 244 701 l 304 927 l 740 927 q 865 869 822 927 q 892 782 892 831 q 885 729 892 757 l 840 559 q 744 419 818 477 q 589 361 671 361 l 414 361 l 313 -12 l 53 -12 l 214 588 l 530 588 q 574 605 553 588 q 602 644 595 621 q 604 659 604 652 q 596 684 604 673 q 561 701 584 701 l 244 701 z "},"Q":{"ha":746,"x_min":99,"x_max":892,"o":"m 389 271 q 387 256 387 264 q 395 232 387 243 q 431 215 408 215 q 475 232 454 215 q 502 271 496 248 l 602 644 q 604 659 604 652 q 596 684 604 673 q 561 701 584 701 q 517 684 538 701 q 490 644 496 667 l 389 271 m 376 12 q 426 -12 409 12 q 437 -47 437 -27 q 434 -68 437 -57 l 419 -124 l 633 -124 l 658 -34 q 661 -9 661 -22 q 642 51 661 21 q 703 136 692 93 l 862 729 q 869 777 869 754 q 844 853 869 819 q 734 904 806 904 l 496 904 q 359 853 424 904 q 275 729 294 802 l 130 186 q 123 139 123 161 q 148 63 123 96 q 258 12 185 12 l 376 12 m 467 644 q 505 700 475 677 q 567 724 534 724 q 616 701 600 724 q 628 665 628 684 q 625 644 628 655 l 525 271 q 487 215 516 239 q 425 192 457 192 q 375 216 392 192 q 363 250 363 231 q 366 271 363 260 l 467 644 m 370 -12 l 251 -12 q 127 47 169 -12 q 99 133 99 84 q 106 186 99 158 l 252 729 q 347 869 273 811 q 503 927 420 927 l 740 927 q 865 869 822 927 q 892 782 892 831 q 885 729 892 757 l 726 136 q 673 51 712 85 q 686 3 686 31 q 681 -34 686 -14 l 650 -147 l 390 -147 l 411 -68 q 413 -53 413 -60 q 405 -28 413 -39 q 370 -12 393 -12 z "},"R":{"ha":746,"x_min":53,"x_max":892,"o":"m 297 12 l 397 385 l 476 385 q 526 361 509 385 q 537 326 537 345 q 534 305 537 316 l 456 12 l 670 12 l 749 305 q 751 326 751 315 q 696 407 751 370 q 803 509 787 452 l 862 729 q 869 777 869 754 q 844 853 869 819 q 734 904 806 904 l 321 904 l 273 724 l 567 724 q 616 701 600 724 q 628 665 628 684 q 625 644 628 655 l 604 565 l 231 565 l 83 12 l 297 12 m 53 -12 l 214 588 l 587 588 l 602 644 q 604 659 604 652 q 596 684 604 673 q 561 701 584 701 l 244 701 l 304 927 l 740 927 q 865 869 822 927 q 892 782 892 831 q 885 729 892 757 l 826 509 q 743 407 807 438 q 777 342 777 385 q 772 305 777 325 l 686 -12 l 426 -12 l 511 305 q 513 320 513 313 q 505 345 513 334 q 470 361 493 361 l 414 361 l 313 -12 l 53 -12 z "},"S":{"ha":746,"x_min":53,"x_max":802,"o":"m 476 385 q 526 361 509 385 q 537 326 537 345 q 534 305 537 316 l 525 271 q 487 215 516 239 q 425 192 457 192 l 131 192 l 83 12 l 410 12 q 614 87 518 12 q 739 271 711 163 l 749 305 q 758 374 758 342 q 722 489 758 439 q 558 565 666 565 l 524 565 q 475 589 492 565 q 464 623 464 604 q 467 644 464 633 q 505 700 475 677 q 567 724 534 724 l 725 724 l 773 904 l 581 904 q 377 828 473 904 q 252 644 281 752 q 242 574 242 607 q 279 460 242 510 q 442 385 334 385 l 476 385 m 470 361 l 436 361 q 258 444 319 361 q 218 568 218 498 q 229 644 218 604 q 365 844 260 762 q 587 927 470 927 l 802 927 l 742 701 l 561 701 q 517 684 538 701 q 490 644 496 667 q 487 629 487 636 q 495 605 487 615 q 530 588 507 588 l 564 588 q 743 505 682 588 q 783 381 783 450 q 772 305 783 345 l 762 271 q 626 71 731 154 q 404 -12 521 -12 l 53 -12 l 114 215 l 431 215 q 475 232 454 215 q 502 271 496 248 l 511 305 q 513 320 513 313 q 505 345 513 334 q 470 361 493 361 z "},"T":{"ha":712,"x_min":222,"x_max":904,"o":"m 400 565 l 252 12 l 467 12 l 614 565 l 400 565 m 827 724 l 875 904 l 321 904 l 273 724 l 827 724 m 644 588 l 483 -12 l 222 -12 l 383 588 l 644 588 m 244 701 l 304 927 l 904 927 l 844 701 l 244 701 z "},"U":{"ha":746,"x_min":99,"x_max":938,"o":"m 525 271 q 487 215 516 239 q 425 192 457 192 q 375 216 392 192 q 363 250 363 231 q 366 271 363 260 l 536 904 l 321 904 l 130 186 q 123 139 123 161 q 148 63 123 96 q 258 12 185 12 l 495 12 q 632 63 568 12 q 717 186 697 114 l 909 904 l 694 904 l 525 271 m 677 927 l 938 927 l 740 186 q 644 46 718 104 q 488 -12 570 -12 l 251 -12 q 127 47 169 -12 q 99 133 99 84 q 106 186 99 158 l 304 927 l 565 927 l 389 271 q 387 256 387 264 q 395 232 387 243 q 431 215 408 215 q 475 232 454 215 q 502 271 496 248 l 677 927 z "},"V":{"ha":814,"x_min":231,"x_max":1042,"o":"m 504 904 l 290 904 l 256 87 l 256 79 q 342 12 256 12 l 570 12 l 1008 904 l 794 904 l 475 252 l 504 904 m 503 358 l 781 927 l 1042 927 l 583 -12 l 336 -12 q 231 73 231 -12 l 231 82 l 268 927 l 529 927 l 503 358 z "},"W":{"ha":1356,"x_min":231,"x_max":1585,"o":"m 798 87 l 798 79 q 885 12 798 12 l 1113 12 l 1550 904 l 1337 904 l 1017 252 l 1046 904 l 794 904 l 475 252 l 504 904 l 290 904 l 256 87 l 256 79 q 342 12 256 12 l 570 12 l 817 513 l 798 87 m 788 407 l 583 -12 l 336 -12 q 231 73 231 -12 l 231 82 l 268 927 l 529 927 l 503 358 l 781 927 l 1072 927 l 1045 358 l 1324 927 l 1585 927 l 1125 -12 l 878 -12 q 773 73 773 -12 l 773 82 l 788 407 z "},"X":{"ha":746,"x_min":19,"x_max":972,"o":"m 248 250 q 170 192 210 192 l 97 192 l 49 12 l 207 12 q 352 89 300 12 l 426 197 l 452 12 l 665 12 l 603 457 l 744 666 q 821 724 781 724 l 895 724 l 943 904 l 785 904 q 640 827 690 904 l 566 718 l 540 904 l 327 904 l 389 459 l 248 250 m 364 459 l 299 927 l 561 927 l 582 779 l 620 836 q 791 927 682 927 l 972 927 l 911 701 l 815 701 q 764 658 791 701 l 627 457 l 692 -12 l 430 -12 l 410 136 l 372 81 q 200 -12 310 -12 l 19 -12 l 80 215 l 176 215 q 228 258 200 215 l 364 459 z "},"Y":{"ha":746,"x_min":199,"x_max":938,"o":"m 524 565 q 475 589 492 565 q 464 623 464 604 q 467 644 464 633 l 536 904 l 321 904 l 229 559 q 222 512 222 534 q 248 436 222 469 q 369 385 285 385 l 269 12 l 484 12 l 583 385 q 732 436 667 385 q 817 559 797 487 l 909 904 l 694 904 l 625 644 q 587 588 616 612 q 524 565 557 565 m 530 588 q 574 605 553 588 q 602 644 595 621 l 677 927 l 938 927 l 840 559 q 744 419 818 477 q 600 361 671 361 l 500 -12 l 239 -12 l 340 361 q 227 420 269 361 q 199 507 199 458 q 206 559 199 532 l 304 927 l 565 927 l 490 644 q 487 629 487 636 q 495 605 487 615 q 530 588 507 588 z "},"Z":{"ha":678,"x_min":53,"x_max":870,"o":"m 142 234 l 83 12 l 602 12 l 650 192 l 336 192 l 781 682 l 841 904 l 321 904 l 273 724 l 588 724 l 142 234 m 540 701 l 244 701 l 304 927 l 870 927 l 803 675 l 384 215 l 680 215 l 618 -12 l 53 -12 l 121 241 l 540 701 z "},"[":{"ha":509,"x_min":35,"x_max":719,"o":"m 506 791 l 642 791 l 690 972 l 340 972 l 64 -56 l 414 -56 l 463 124 l 327 124 l 506 791 m 356 147 l 492 147 l 431 -79 l 35 -79 l 323 995 l 719 995 l 659 768 l 523 768 l 356 147 z "},"\\":{"ha":746,"x_min":299,"x_max":692,"o":"m 452 12 l 665 12 l 540 904 l 327 904 l 452 12 m 299 927 l 561 927 l 692 -12 l 430 -12 l 299 927 z "},"]":{"ha":509,"x_min":35,"x_max":719,"o":"m 248 124 l 113 124 l 64 -56 l 414 -56 l 690 972 l 340 972 l 292 791 l 427 791 l 248 124 m 398 768 l 262 768 l 323 995 l 719 995 l 431 -79 l 35 -79 l 96 147 l 231 147 l 398 768 z "},"^":{"ha":678,"x_min":306,"x_max":893,"o":"m 646 995 l 854 995 l 759 1209 l 568 1209 l 357 995 l 565 995 l 625 1066 l 646 995 m 612 1020 l 572 972 l 306 972 l 562 1232 l 777 1232 l 893 972 l 627 972 l 612 1020 z "},"_":{"ha":814,"x_min":-69,"x_max":727,"o":"m -40 -192 l 649 -192 l 697 -12 l 8 -12 l -40 -192 m -8 12 l 727 12 l 666 -215 l -69 -215 l -8 12 z "},"`":{"ha":610,"x_min":364,"x_max":823,"o":"m 644 995 l 789 995 l 724 1209 l 426 1209 l 644 995 m 364 1232 l 744 1232 l 823 972 l 629 972 l 364 1232 z "},"a":{"ha":746,"x_min":111,"x_max":838,"o":"m 409 260 q 391 253 399 260 q 380 237 383 247 q 380 231 380 234 q 382 222 380 226 q 397 215 387 215 l 487 215 l 499 260 l 409 260 m 547 520 q 575 507 566 520 q 581 488 581 500 q 576 463 581 477 l 429 463 q 252 397 336 463 q 143 237 168 331 q 134 177 134 205 q 167 78 134 121 q 309 12 215 12 l 670 12 l 808 526 q 814 572 814 550 q 789 650 814 615 q 680 701 752 701 l 403 700 l 355 520 l 547 520 m 415 283 l 528 283 l 504 192 l 391 192 q 362 205 372 192 q 355 224 355 214 q 357 237 355 231 q 379 270 362 256 q 415 283 396 283 m 558 486 q 555 491 557 488 q 540 497 549 497 l 325 497 l 386 723 l 686 724 q 810 666 768 724 q 838 578 838 627 q 831 526 838 553 l 686 -12 l 302 -12 q 146 62 199 -12 q 111 170 111 109 q 120 237 111 202 q 240 413 148 340 q 435 486 332 486 l 558 486 z "},"b":{"ha":746,"x_min":53,"x_max":838,"o":"m 495 12 q 632 63 568 12 q 717 186 697 114 l 808 526 q 814 572 814 550 q 789 650 814 615 q 680 701 752 701 l 481 701 l 536 904 l 321 904 l 83 12 l 495 12 m 374 215 l 431 215 q 475 232 454 215 q 502 271 496 248 l 547 441 q 549 456 549 448 q 541 481 549 469 q 506 497 529 497 q 462 480 483 497 q 435 441 441 464 l 374 215 m 53 -12 l 304 927 l 565 927 l 511 724 l 686 724 q 810 666 768 724 q 838 578 838 627 q 831 526 838 553 l 740 186 q 644 46 718 104 q 488 -12 570 -12 l 53 -12 m 412 441 q 450 497 420 473 q 513 520 480 520 q 562 497 545 520 q 573 462 573 481 q 570 441 573 452 l 525 271 q 487 215 516 239 q 425 192 457 192 l 345 192 l 412 441 z "},"c":{"ha":678,"x_min":99,"x_max":816,"o":"m 425 192 q 375 216 392 192 q 363 250 363 231 q 366 271 363 260 l 412 441 q 450 497 420 473 q 513 520 480 520 l 739 520 l 787 701 l 442 701 q 304 649 370 701 q 220 526 239 598 l 130 186 q 123 139 123 161 q 148 63 123 96 q 258 12 185 12 l 602 12 l 650 192 l 425 192 m 431 215 l 680 215 l 618 -12 l 251 -12 q 127 47 169 -12 q 99 133 99 84 q 106 186 99 158 l 197 526 q 293 666 219 608 q 448 724 366 724 l 816 724 l 755 497 l 506 497 q 462 480 483 497 q 435 441 441 464 l 389 271 q 387 256 387 264 q 395 232 387 243 q 431 215 408 215 z "},"d":{"ha":746,"x_min":99,"x_max":938,"o":"m 670 12 l 909 904 l 694 904 l 640 701 l 442 701 q 304 649 370 701 q 220 526 239 598 l 130 186 q 123 139 123 161 q 148 63 123 96 q 258 12 185 12 l 670 12 m 547 441 q 549 456 549 448 q 541 481 549 469 q 506 497 529 497 q 462 480 483 497 q 435 441 441 464 l 389 271 q 387 256 387 264 q 395 232 387 243 q 431 215 408 215 l 487 215 l 547 441 m 251 -12 q 127 47 169 -12 q 99 133 99 84 q 106 186 99 158 l 197 526 q 293 666 219 608 q 448 724 366 724 l 623 724 l 677 927 l 938 927 l 686 -12 l 251 -12 m 504 192 l 425 192 q 375 216 392 192 q 363 250 363 231 q 366 271 363 260 l 412 441 q 450 497 420 473 q 513 520 480 520 q 562 497 545 520 q 573 462 573 481 q 570 441 573 452 l 504 192 z "},"e":{"ha":746,"x_min":99,"x_max":838,"o":"m 551 452 q 551 456 551 454 q 541 481 551 467 q 506 497 529 497 q 462 480 483 497 q 438 452 441 464 l 551 452 m 391 192 q 362 205 372 192 q 357 224 357 212 q 360 249 357 235 l 733 249 l 808 526 q 814 572 814 550 q 789 650 814 615 q 680 701 752 701 l 442 701 q 304 649 370 701 q 220 526 239 598 l 130 186 q 123 139 123 161 q 148 63 123 96 q 258 12 185 12 l 602 12 l 650 192 l 391 192 m 409 429 q 450 497 420 473 q 513 520 480 520 q 562 497 545 520 q 572 462 572 483 q 568 429 572 447 l 409 429 m 379 226 q 383 222 380 224 q 397 215 387 215 l 680 215 l 618 -12 l 251 -12 q 127 47 169 -12 q 99 133 99 84 q 106 186 99 158 l 197 526 q 293 666 219 608 q 448 724 366 724 l 686 724 q 810 666 768 724 q 838 578 838 627 q 831 526 838 553 l 750 226 l 379 226 z "},"f":{"ha":610,"x_min":121,"x_max":802,"o":"m 534 644 q 572 700 543 677 q 635 724 602 724 l 725 724 l 773 904 l 564 904 q 427 853 492 904 q 342 729 362 802 l 298 565 l 231 565 l 182 385 l 250 385 l 151 12 l 365 12 l 465 385 l 634 385 l 682 565 l 513 565 l 534 644 m 542 588 l 711 588 l 651 361 l 481 361 l 381 -12 l 121 -12 l 221 361 l 153 361 l 214 588 l 281 588 l 319 729 q 415 869 341 811 q 570 927 488 927 l 802 927 l 742 701 l 629 701 q 585 684 606 701 q 557 644 564 667 l 542 588 z "},"g":{"ha":746,"x_min":99,"x_max":884,"o":"m 389 271 q 387 256 387 264 q 395 232 387 243 q 431 215 408 215 q 475 232 454 215 q 502 271 496 248 l 562 497 l 506 497 q 462 480 483 497 q 435 441 441 464 l 389 271 m 456 12 q 414 -56 444 -33 q 352 -79 385 -79 l 194 -79 l 145 -260 l 422 -260 q 559 -209 494 -260 q 644 -85 625 -157 l 854 701 l 442 701 q 304 649 370 701 q 220 526 239 598 l 130 186 q 123 139 123 161 q 148 63 123 96 q 258 12 185 12 l 456 12 m 412 441 q 450 497 420 473 q 513 520 480 520 l 592 520 l 525 271 q 487 215 516 239 q 425 192 457 192 q 375 216 392 192 q 363 250 363 231 q 366 271 363 260 l 412 441 m 426 -12 l 251 -12 q 127 47 169 -12 q 99 133 99 84 q 106 186 99 158 l 197 526 q 293 666 219 608 q 448 724 366 724 l 884 724 l 667 -85 q 571 -225 645 -167 q 416 -283 498 -283 l 116 -283 l 177 -56 l 358 -56 q 402 -40 381 -56 q 426 -12 423 -23 z "},"h":{"ha":746,"x_min":53,"x_max":838,"o":"m 536 904 l 321 904 l 83 12 l 297 12 l 433 520 l 513 520 q 562 497 545 520 q 573 462 573 481 q 570 441 573 452 l 456 12 l 670 12 l 808 526 q 814 572 814 550 q 789 650 814 615 q 680 701 752 701 l 481 701 l 536 904 m 511 724 l 686 724 q 810 666 768 724 q 838 578 838 627 q 831 526 838 553 l 686 -12 l 426 -12 l 547 441 q 549 456 549 448 q 541 481 549 469 q 506 497 529 497 l 450 497 l 313 -12 l 53 -12 l 304 927 l 565 927 l 511 724 z "},"i":{"ha":373,"x_min":53,"x_max":565,"o":"m 83 12 l 297 12 l 481 701 l 267 701 l 83 12 m 292 791 l 506 791 l 536 904 l 321 904 l 292 791 m 250 724 l 511 724 l 313 -12 l 53 -12 l 250 724 m 304 927 l 565 927 l 523 768 l 262 768 l 304 927 z "},"j":{"ha":373,"x_min":-155,"x_max":565,"o":"m 79 0 q 41 -56 71 -33 q -21 -79 12 -79 l -77 -79 l -126 -260 l 49 -260 q 186 -209 121 -260 q 271 -85 252 -157 l 481 701 l 267 701 l 79 0 m 321 904 l 292 791 l 506 791 l 536 904 l 321 904 m 250 724 l 511 724 l 294 -85 q 198 -225 272 -167 q 43 -283 125 -283 l -155 -283 l -94 -56 l -15 -56 q 29 -40 8 -56 q 56 0 50 -23 l 250 724 m 565 927 l 523 768 l 262 768 l 304 927 l 565 927 z "},"k":{"ha":746,"x_min":53,"x_max":884,"o":"m 696 701 q 570 637 635 701 l 425 491 l 536 904 l 321 904 l 83 12 l 297 12 l 349 208 l 424 282 l 519 12 l 729 12 l 581 438 l 663 520 l 806 520 l 854 701 l 696 701 m 884 724 l 823 497 l 668 497 l 608 437 l 763 -12 l 498 -12 l 412 241 l 370 199 l 313 -12 l 53 -12 l 304 927 l 565 927 l 467 563 l 555 651 q 703 724 629 724 l 884 724 z "},"l":{"ha":339,"x_min":-15,"x_max":497,"o":"m 254 904 l 15 12 l 229 12 l 468 904 l 254 904 m 497 927 l 245 -12 l -15 -12 l 237 927 l 497 927 z "},"m":{"ha":983,"x_min":53,"x_max":1076,"o":"m 267 701 l 83 12 l 297 12 l 433 520 l 524 520 l 388 12 l 602 12 l 739 520 q 800 497 783 520 q 810 462 810 481 q 808 441 810 452 l 693 12 l 907 12 l 1045 526 q 1051 572 1051 550 q 1027 650 1051 615 q 917 701 989 701 l 267 701 m 923 724 q 1048 666 1005 724 q 1076 578 1076 627 q 1068 526 1076 553 l 924 -12 l 663 -12 l 785 441 q 787 456 787 448 q 779 481 787 469 q 755 497 766 497 l 618 -12 l 358 -12 l 494 497 l 450 497 l 313 -12 l 53 -12 l 250 724 l 923 724 z "},"n":{"ha":746,"x_min":53,"x_max":838,"o":"m 433 520 l 513 520 q 562 497 545 520 q 573 462 573 481 q 570 441 573 452 l 456 12 l 670 12 l 808 526 q 814 572 814 550 q 789 650 814 615 q 680 701 752 701 l 267 701 l 83 12 l 297 12 l 433 520 m 313 -12 l 53 -12 l 250 724 l 686 724 q 810 666 768 724 q 838 578 838 627 q 831 526 838 553 l 686 -12 l 426 -12 l 547 441 q 549 456 549 448 q 541 481 549 469 q 506 497 529 497 l 450 497 l 313 -12 z "},"o":{"ha":746,"x_min":99,"x_max":838,"o":"m 495 12 q 632 63 568 12 q 717 186 697 114 l 808 526 q 814 572 814 550 q 789 650 814 615 q 680 701 752 701 l 442 701 q 304 649 370 701 q 220 526 239 598 l 130 186 q 123 139 123 161 q 148 63 123 96 q 258 12 185 12 l 495 12 m 389 271 q 387 256 387 264 q 395 232 387 243 q 431 215 408 215 q 475 232 454 215 q 502 271 496 248 l 547 441 q 549 456 549 448 q 541 481 549 469 q 506 497 529 497 q 462 480 483 497 q 435 441 441 464 l 389 271 m 251 -12 q 127 47 169 -12 q 99 133 99 84 q 106 186 99 158 l 197 526 q 293 666 219 608 q 448 724 366 724 l 686 724 q 810 666 768 724 q 838 578 838 627 q 831 526 838 553 l 740 186 q 644 46 718 104 q 488 -12 570 -12 l 251 -12 m 412 441 q 450 497 420 473 q 513 520 480 520 q 562 497 545 520 q 573 462 573 481 q 570 441 573 452 l 525 271 q 487 215 516 239 q 425 192 457 192 q 375 216 392 192 q 363 250 363 231 q 366 271 363 260 l 412 441 z "},"p":{"ha":746,"x_min":-20,"x_max":838,"o":"m 267 701 l 9 -260 l 224 -260 l 297 12 l 495 12 q 632 63 568 12 q 717 186 697 114 l 808 526 q 814 572 814 550 q 789 650 814 615 q 680 701 752 701 l 267 701 m 389 271 q 387 256 387 264 q 395 232 387 243 q 431 215 408 215 q 475 232 454 215 q 502 271 496 248 l 547 441 q 549 456 549 448 q 541 481 549 469 q 506 497 529 497 l 450 497 l 389 271 m 686 724 q 810 666 768 724 q 838 578 838 627 q 831 526 838 553 l 740 186 q 644 46 718 104 q 488 -12 570 -12 l 313 -12 l 241 -283 l -20 -283 l 250 724 l 686 724 m 433 520 l 513 520 q 562 497 545 520 q 573 462 573 481 q 570 441 573 452 l 525 271 q 487 215 516 239 q 425 192 457 192 q 375 216 392 192 q 363 250 363 231 q 366 271 363 260 l 433 520 z "},"q":{"ha":746,"x_min":99,"x_max":884,"o":"m 442 701 q 304 649 370 701 q 220 526 239 598 l 130 186 q 123 139 123 161 q 148 63 123 96 q 258 12 185 12 l 456 12 l 382 -260 l 597 -260 l 854 701 l 442 701 m 562 497 l 506 497 q 462 480 483 497 q 435 441 441 464 l 389 271 q 387 256 387 264 q 395 232 387 243 q 431 215 408 215 q 475 232 454 215 q 502 271 496 248 l 562 497 m 884 724 l 614 -283 l 353 -283 l 426 -12 l 251 -12 q 127 47 169 -12 q 99 133 99 84 q 106 186 99 158 l 197 526 q 293 666 219 608 q 448 724 366 724 l 884 724 m 525 271 q 487 215 516 239 q 425 192 457 192 q 375 216 392 192 q 363 250 363 231 q 366 271 363 260 l 412 441 q 450 497 420 473 q 513 520 480 520 l 592 520 l 525 271 z "},"r":{"ha":746,"x_min":53,"x_max":838,"o":"m 433 520 l 513 520 q 562 497 545 520 q 575 463 575 479 q 574 452 575 458 l 788 452 l 808 526 q 814 572 814 550 q 789 650 814 615 q 680 701 752 701 l 267 701 l 83 12 l 297 12 l 433 520 m 313 -12 l 53 -12 l 250 724 l 686 724 q 810 666 768 724 q 838 578 838 627 q 831 526 838 553 l 805 429 l 545 429 q 548 455 548 444 q 541 481 548 471 q 506 497 529 497 l 450 497 l 313 -12 z "},"s":{"ha":746,"x_min":53,"x_max":760,"o":"m 507 266 l 505 261 l 510 255 q 515 238 515 248 q 514 229 515 234 q 496 203 509 214 l 488 197 l 487 192 l 131 192 l 83 12 l 453 12 q 623 75 543 12 q 728 229 704 139 q 736 287 736 259 q 705 382 736 340 q 569 446 659 446 l 450 446 q 427 457 435 446 q 422 473 422 465 q 423 484 422 478 q 441 509 427 498 q 471 520 455 520 l 671 520 l 719 701 l 484 701 q 314 637 395 701 q 209 483 233 573 q 201 425 201 452 q 231 330 201 372 q 359 266 276 269 l 507 266 m 353 243 q 211 313 260 245 q 177 419 177 360 q 186 483 177 449 q 302 653 212 583 q 490 724 391 724 l 748 724 l 687 497 l 464 497 q 453 493 458 497 q 446 484 448 489 q 446 479 446 481 q 448 473 446 476 q 456 469 450 469 l 575 469 q 726 399 674 469 q 760 293 760 352 q 751 229 760 262 q 635 59 724 130 q 446 -12 545 -12 l 53 -12 l 114 215 l 470 215 l 469 213 q 484 219 481 217 q 491 229 489 223 q 492 232 492 231 q 489 239 492 236 q 478 245 488 241 l 477 243 l 353 243 z "},"t":{"ha":610,"x_min":167,"x_max":748,"o":"m 501 520 l 671 520 l 719 701 l 549 701 l 604 904 l 389 904 l 335 701 l 267 701 l 219 520 l 287 521 l 197 186 q 191 139 191 161 q 216 63 191 96 q 326 12 253 12 l 534 12 l 583 192 l 492 192 q 443 216 460 192 q 431 250 431 231 q 434 271 431 260 l 501 520 m 457 271 q 455 256 455 264 q 463 232 455 243 q 498 215 475 215 l 612 215 l 551 -12 l 319 -12 q 195 47 237 -12 q 167 133 167 84 q 174 186 167 158 l 258 498 l 189 497 l 250 724 l 318 724 l 372 927 l 633 927 l 578 724 l 748 724 l 687 497 l 517 497 l 457 271 z "},"u":{"ha":746,"x_min":99,"x_max":884,"o":"m 504 192 l 425 192 q 375 216 392 192 q 363 250 363 231 q 366 271 363 260 l 481 701 l 267 701 l 130 186 q 123 139 123 161 q 148 63 123 96 q 258 12 185 12 l 670 12 l 854 701 l 640 701 l 504 192 m 623 724 l 884 724 l 686 -12 l 251 -12 q 127 47 169 -12 q 99 133 99 84 q 106 186 99 158 l 250 724 l 511 724 l 389 271 q 387 256 387 264 q 395 232 387 243 q 431 215 408 215 l 487 215 l 623 724 z "},"v":{"ha":746,"x_min":193,"x_max":921,"o":"m 292 12 l 537 12 l 885 701 l 671 701 l 436 235 l 450 701 l 236 701 l 217 71 l 217 68 q 292 12 217 12 m 285 -12 q 193 63 193 -12 l 193 65 l 214 724 l 474 724 l 463 334 l 660 724 l 921 724 l 548 -12 l 285 -12 z "},"w":{"ha":1221,"x_min":193,"x_max":1396,"o":"m 692 71 l 692 68 q 766 12 692 12 l 1012 12 l 1360 701 l 1146 701 l 911 235 l 925 701 l 671 701 l 436 235 l 450 701 l 236 701 l 217 71 l 217 68 q 292 12 217 12 l 537 12 l 700 334 l 692 71 m 673 233 l 548 -12 l 285 -12 q 193 63 193 -12 l 193 65 l 214 724 l 474 724 l 463 334 l 660 724 l 949 724 l 937 334 l 1135 724 l 1396 724 l 1023 -12 l 760 -12 q 667 63 667 -12 l 667 65 l 673 233 z "},"x":{"ha":746,"x_min":19,"x_max":918,"o":"m 284 266 q 153 192 218 192 l 97 192 l 49 12 l 207 12 q 311 57 269 12 l 423 186 l 484 12 l 694 12 l 573 357 l 653 448 q 784 520 720 520 l 840 520 l 888 701 l 730 701 q 626 655 669 701 l 513 526 l 453 701 l 243 701 l 363 356 l 284 266 m 336 356 l 207 724 l 471 724 l 526 571 l 610 667 q 736 724 663 724 l 918 724 l 857 497 l 777 497 q 669 435 725 497 l 600 357 l 730 -12 l 465 -12 l 412 141 l 327 45 q 200 -12 274 -12 l 19 -12 l 80 215 l 159 215 q 269 278 212 215 l 336 356 z "},"y":{"ha":746,"x_min":99,"x_max":884,"o":"m 456 12 q 414 -56 444 -33 q 352 -79 385 -79 l 194 -79 l 145 -260 l 422 -260 q 559 -209 494 -260 q 644 -85 625 -157 l 854 701 l 640 701 l 504 192 l 425 192 q 375 216 392 192 q 363 250 363 231 q 366 271 363 260 l 481 701 l 267 701 l 130 186 q 123 139 123 161 q 148 63 123 96 q 258 12 185 12 l 456 12 m 426 -12 l 251 -12 q 127 47 169 -12 q 99 133 99 84 q 106 186 99 158 l 250 724 l 511 724 l 389 271 q 387 256 387 264 q 395 232 387 243 q 431 215 408 215 l 487 215 l 623 724 l 884 724 l 667 -85 q 571 -225 645 -167 q 416 -283 498 -283 l 116 -283 l 177 -56 l 358 -56 q 402 -40 381 -56 q 426 -12 423 -23 z "},"z":{"ha":746,"x_min":53,"x_max":884,"o":"m 142 232 l 83 12 l 670 12 l 718 192 l 358 192 l 795 480 l 854 701 l 267 701 l 219 520 l 579 520 l 142 232 m 507 497 l 189 497 l 250 724 l 884 724 l 815 469 l 429 215 l 747 215 l 686 -12 l 53 -12 l 121 243 l 507 497 z "},"{":{"ha":610,"x_min":153,"x_max":821,"o":"m 495 373 q 498 394 498 384 q 443 475 498 438 q 550 576 534 519 l 586 712 q 625 768 595 745 q 687 791 654 791 l 743 791 l 791 972 l 616 972 q 479 921 544 972 q 395 797 414 869 l 354 644 q 315 588 345 612 q 253 565 286 565 l 231 565 l 182 385 l 205 385 q 254 361 237 385 q 266 326 266 345 q 263 305 266 316 l 213 119 q 206 71 206 94 q 231 -5 206 28 q 341 -56 269 -56 l 516 -56 l 564 124 l 508 124 q 458 148 475 124 q 447 183 447 163 q 450 203 447 193 l 495 373 m 518 373 l 473 203 q 471 189 471 196 q 479 164 471 175 q 514 147 491 147 l 593 147 l 533 -79 l 335 -79 q 210 -21 253 -79 q 182 65 182 17 q 190 119 182 90 l 240 305 q 242 320 242 313 q 234 345 242 334 q 199 361 222 361 l 153 361 l 214 588 l 259 588 q 303 605 282 588 q 331 644 324 621 l 372 797 q 467 937 393 879 q 623 995 541 995 l 821 995 l 760 768 l 681 768 q 636 752 658 768 q 609 712 615 735 l 573 576 q 490 475 554 506 q 524 410 524 452 q 518 373 524 393 z "},"|":{"ha":373,"x_min":35,"x_max":583,"o":"m 554 972 l 340 972 l 64 -56 l 279 -56 l 554 972 m 296 -79 l 35 -79 l 323 995 l 583 995 l 296 -79 z "},"}":{"ha":610,"x_min":35,"x_max":711,"o":"m 315 373 l 269 203 q 231 148 261 171 q 169 124 201 124 l 113 124 l 64 -56 l 239 -56 q 377 -5 312 -56 q 461 119 441 46 l 511 305 q 549 361 519 338 q 612 385 579 385 l 634 385 l 682 565 l 660 565 q 610 589 627 565 q 600 623 600 604 q 602 644 600 633 l 643 797 q 650 844 650 822 q 625 921 650 887 q 515 972 587 972 l 340 972 l 292 791 l 348 791 q 397 768 380 791 q 408 733 408 753 q 406 712 408 723 l 370 576 q 367 555 367 566 q 422 475 367 511 q 315 373 330 430 m 292 373 q 375 475 311 444 q 341 539 341 497 q 347 576 341 556 l 382 712 q 385 727 385 720 q 377 752 385 741 q 342 768 365 768 l 262 768 l 323 995 l 521 995 q 646 937 603 995 q 673 850 673 899 q 666 797 673 825 l 625 644 q 623 629 623 636 q 631 605 623 615 q 666 588 643 588 l 711 588 l 651 361 l 606 361 q 562 345 583 361 q 534 305 541 328 l 484 119 q 389 -21 462 37 q 233 -79 315 -79 l 35 -79 l 96 147 l 175 147 q 219 164 198 147 q 246 203 240 180 l 292 373 z "},"~":{"ha":746,"x_min":327,"x_max":1009,"o":"m 372 1056 l 535 996 l 600 1048 q 741 995 709 995 q 809 1025 770 995 l 965 1148 l 802 1208 l 736 1156 q 595 1209 627 1209 q 528 1179 566 1209 l 372 1056 m 515 1195 q 602 1232 563 1232 q 739 1183 637 1232 l 802 1234 l 1009 1158 l 821 1009 q 735 972 774 972 q 598 1021 699 972 l 534 970 l 327 1046 l 515 1195 z "},"":{"ha":373,"x_min":53,"x_max":565,"o":"m 536 904 l 321 904 l 273 724 l 488 724 l 536 904 m 249 633 l 83 12 l 297 12 l 463 633 l 249 633 m 505 701 l 244 701 l 304 927 l 565 927 l 505 701 m 492 656 l 313 -12 l 53 -12 l 232 656 l 492 656 z "},"":{"ha":678,"x_min":117,"x_max":816,"o":"m 620 79 l 669 260 l 443 260 q 393 283 410 260 q 382 318 382 298 q 385 339 382 328 l 412 441 q 450 497 420 473 q 513 520 480 520 l 739 520 l 787 701 l 651 701 l 669 768 l 455 768 l 437 701 q 305 650 363 695 q 220 526 239 598 l 147 254 q 141 208 141 230 q 166 131 141 165 q 270 79 199 85 l 252 12 l 467 12 l 484 79 l 620 79 m 501 56 l 483 -12 l 222 -12 l 241 58 q 145 115 182 63 q 117 202 117 153 q 124 254 117 227 l 197 526 q 293 666 219 608 q 419 722 357 717 l 438 791 l 699 791 l 680 724 l 816 724 l 755 497 l 506 497 q 462 480 483 497 q 435 441 441 464 l 408 339 q 406 324 406 332 q 414 300 406 311 q 449 283 426 283 l 698 283 l 637 56 l 501 56 z "},"":{"ha":678,"x_min":53,"x_max":802,"o":"m 131 192 l 83 12 l 602 12 l 650 192 l 413 192 l 465 385 l 634 385 l 682 565 l 513 565 l 534 644 q 572 700 543 677 q 635 724 602 724 l 725 724 l 773 904 l 564 904 q 427 853 492 904 q 342 729 362 802 l 298 565 l 231 565 l 182 385 l 250 385 l 199 192 l 131 192 m 182 215 l 221 361 l 153 361 l 214 588 l 281 588 l 319 729 q 415 869 341 811 q 570 927 488 927 l 802 927 l 742 701 l 629 701 q 585 684 606 701 q 557 644 564 667 l 542 588 l 711 588 l 651 361 l 481 361 l 442 215 l 680 215 l 618 -12 l 53 -12 l 114 215 l 182 215 z "},"":{"ha":746,"x_min":19,"x_max":972,"o":"m 430 424 q 428 409 428 416 q 436 385 428 395 q 471 368 448 368 q 515 384 494 368 q 543 424 536 401 l 561 492 q 563 507 563 500 q 555 532 563 520 q 520 548 543 548 q 476 531 497 548 q 448 492 454 515 l 430 424 m 431 164 l 452 12 l 665 12 l 639 192 q 673 216 661 205 q 758 339 738 267 l 821 576 q 828 624 828 602 q 804 700 828 667 q 790 718 802 701 q 821 724 817 724 l 895 724 l 943 904 l 785 904 q 640 827 690 904 l 588 751 l 561 751 l 540 904 l 327 904 l 353 724 q 319 701 331 710 q 234 576 253 649 l 170 339 q 163 292 163 315 q 189 215 163 249 q 201 197 190 213 q 170 192 175 192 l 97 192 l 49 12 l 207 12 q 352 89 300 12 l 404 164 l 431 164 m 425 492 q 464 548 434 524 q 526 571 494 571 q 576 548 559 571 q 587 513 587 532 q 584 492 587 503 l 566 424 q 528 368 557 391 q 465 345 498 345 q 416 368 433 345 q 404 404 404 384 q 407 424 404 413 l 425 492 m 160 211 l 159 211 q 168 200 167 200 q 160 211 163 205 m 834 701 q 852 629 852 668 q 844 576 852 604 l 781 339 q 686 199 759 257 q 665 184 671 188 l 692 -12 l 430 -12 l 410 138 l 372 81 q 200 -12 310 -12 l 19 -12 l 80 215 l 158 215 q 140 286 140 247 q 147 339 140 311 l 211 576 q 307 717 233 659 q 326 732 321 728 l 299 927 l 561 927 l 581 778 l 620 836 q 791 927 682 927 l 972 927 l 911 701 l 834 701 z "},"":{"ha":746,"x_min":139,"x_max":938,"o":"m 620 79 l 669 260 l 550 260 l 574 351 l 693 351 l 741 531 l 706 531 q 769 572 754 560 q 853 695 833 623 l 909 904 l 694 904 l 661 780 q 623 724 652 747 q 561 701 593 701 q 511 724 528 701 q 500 759 500 739 q 503 780 500 769 l 536 904 l 321 904 l 266 695 q 259 648 259 670 q 284 572 259 605 q 325 531 292 560 l 290 531 l 241 351 l 360 351 l 336 260 l 217 260 l 168 79 l 287 79 l 269 12 l 484 12 l 501 79 l 620 79 m 264 554 q 263 555 264 555 q 235 642 235 593 q 243 695 235 667 l 304 927 l 565 927 l 526 780 q 524 765 524 772 q 532 741 524 751 q 567 724 544 724 q 611 740 590 724 q 638 780 632 757 l 677 927 l 938 927 l 876 695 q 781 555 854 613 q 779 554 780 555 l 770 554 l 709 328 l 591 328 l 579 283 l 698 283 l 637 56 l 518 56 l 500 -12 l 239 -12 l 258 56 l 139 56 l 200 283 l 319 283 l 330 328 l 212 328 l 273 554 l 264 554 z "},"":{"ha":373,"x_min":35,"x_max":583,"o":"m 185 395 l 64 -56 l 279 -56 l 399 395 l 185 395 m 442 554 l 554 972 l 340 972 l 228 554 l 442 554 m 429 418 l 296 -79 l 35 -79 l 168 418 l 429 418 m 199 531 l 323 995 l 583 995 l 459 531 l 199 531 z "},"":{"ha":746,"x_min":35,"x_max":852,"o":"m 430 424 q 428 409 428 416 q 436 385 428 395 q 471 368 448 368 q 515 384 494 368 q 543 424 536 401 l 561 492 q 563 507 563 500 q 555 532 563 520 q 520 548 543 548 q 476 531 497 548 q 448 492 454 515 l 430 424 m 425 492 q 464 548 434 524 q 526 571 494 571 q 576 548 559 571 q 587 513 587 532 q 584 492 587 503 l 566 424 q 528 368 557 391 q 465 345 498 345 q 416 368 433 345 q 404 404 404 384 q 407 424 404 413 l 425 492 m 758 339 l 821 576 q 827 623 827 601 q 803 701 827 666 q 693 751 766 751 l 499 751 q 585 791 555 791 l 743 791 l 791 972 l 600 972 q 395 896 492 972 q 270 712 299 820 l 252 644 q 244 607 247 626 q 234 576 238 591 l 170 339 q 163 292 163 314 q 189 216 163 249 q 298 164 226 164 l 492 164 q 406 124 436 124 l 113 124 l 64 -56 l 392 -56 q 596 20 500 -56 q 721 203 692 96 l 749 305 q 753 323 751 314 q 758 339 755 332 m 749 768 q 824 717 795 755 q 852 629 852 678 q 844 576 852 604 l 781 339 q 776 323 779 331 q 772 305 774 315 l 744 203 q 608 3 713 86 q 386 -79 503 -79 l 35 -79 l 96 147 l 243 147 q 168 199 196 160 q 140 287 140 237 q 147 339 140 311 l 211 576 q 221 607 215 593 q 229 644 224 625 l 247 712 q 384 912 279 829 q 606 995 488 995 l 821 995 l 760 768 l 749 768 z "},"":{"ha":678,"x_min":326,"x_max":952,"o":"m 660 1029 l 874 1029 l 923 1209 l 709 1209 l 660 1029 m 355 1029 l 569 1029 l 618 1209 l 404 1209 l 355 1029 m 692 1232 l 952 1232 l 891 1006 l 631 1006 l 692 1232 m 387 1232 l 647 1232 l 586 1006 l 326 1006 l 387 1232 z "},"":{"ha":610,"x_min":233,"x_max":760,"o":"m 437 612 q 431 632 431 621 q 433 644 431 638 l 469 780 q 491 812 474 799 q 526 825 508 825 l 633 825 l 654 904 l 488 904 q 424 880 454 904 q 385 823 393 857 l 326 602 q 323 581 323 591 q 334 545 323 560 q 386 520 352 520 l 552 520 l 573 599 l 466 599 q 437 612 448 599 m 661 927 q 566 972 626 972 q 410 897 487 972 q 401 887 406 892 q 412 897 406 892 q 494 927 451 927 l 661 927 m 382 865 q 304 712 328 800 q 291 624 291 665 q 301 556 291 587 q 298 576 298 566 q 302 602 298 588 l 361 823 q 382 865 368 846 m 306 541 q 312 528 309 534 q 427 452 348 452 q 546 497 487 452 l 379 497 q 314 528 336 497 q 306 541 309 534 m 575 522 q 583 528 578 525 q 688 712 659 604 q 701 803 701 761 q 681 897 701 854 q 677 903 679 899 l 650 802 l 520 802 q 503 796 511 802 q 492 780 494 789 l 456 644 q 455 638 455 641 q 458 629 455 633 q 472 622 463 622 l 602 622 l 575 522 m 702 912 q 724 808 724 865 q 711 712 724 763 q 595 512 680 595 q 420 429 510 429 q 290 513 331 429 q 267 617 267 559 q 281 712 267 661 q 397 912 312 829 q 572 995 482 995 q 702 912 661 995 m 574 1006 q 392 920 481 1006 q 270 712 303 834 q 256 614 256 660 q 281 505 256 553 q 417 418 324 418 q 600 504 510 418 q 722 712 689 590 q 736 810 736 765 q 711 920 736 871 q 574 1006 667 1006 m 732 936 q 760 816 760 882 q 745 712 760 768 q 612 489 710 582 q 411 395 515 395 q 260 489 307 395 q 233 609 233 543 q 247 712 233 657 q 379 936 282 842 q 581 1029 477 1029 q 732 936 684 1029 z "},"":{"ha":1119,"x_min":0,"x_max":1017,"o":"m 136 0 q 0 136 0 0 l 0 882 q 136 1017 0 1017 l 882 1017 q 1017 882 1017 1017 l 1017 136 q 882 0 1017 0 l 136 0 m 882 17 q 1000 136 1000 17 l 1000 882 q 882 1000 1000 1000 l 136 1000 q 17 882 18 1000 l 17 136 q 136 17 18 17 l 882 17 z "},"":{"ha":1017,"x_min":188,"x_max":1190,"o":"m 410 249 l 649 249 l 459 509 l 789 768 l 550 768 l 220 509 l 410 249 m 749 249 l 988 249 l 798 509 l 1128 768 l 889 768 l 559 509 l 749 249 m 188 509 l 547 791 l 850 791 l 492 509 l 699 226 l 395 226 l 188 509 m 527 509 l 886 791 l 1190 791 l 831 509 l 1038 226 l 734 226 l 527 509 z "},"":{"ha":1119,"x_min":0,"x_max":1017,"o":"m 136 0 q 0 136 0 0 l 0 882 q 136 1017 0 1017 l 882 1017 q 1017 882 1017 1017 l 1017 136 q 882 0 1017 0 l 136 0 m 882 17 q 1000 136 1000 17 l 1000 882 q 882 1000 1000 1000 l 136 1000 q 17 882 18 1000 l 17 136 q 136 17 18 17 l 882 17 z "},"":{"ha":746,"x_min":233,"x_max":760,"o":"m 684 889 q 681 897 682 892 q 566 972 644 972 q 443 927 493 972 l 613 927 q 679 897 656 927 q 684 889 682 893 m 328 497 q 427 452 354 452 q 549 497 499 452 l 460 497 l 496 627 q 496 634 496 631 q 494 644 496 639 q 479 650 489 650 l 457 650 l 416 497 l 328 497 m 370 854 q 304 712 331 812 q 288 610 288 650 q 294 570 288 586 l 349 774 l 535 774 l 536 780 q 537 787 537 783 q 534 796 537 791 q 520 802 530 802 l 356 802 l 370 854 m 693 865 q 694 852 694 859 q 690 823 694 838 l 665 729 q 629 678 654 690 q 641 652 641 670 q 637 627 641 641 l 622 570 q 688 712 661 612 q 701 804 701 761 q 693 865 701 836 m 412 924 q 572 995 498 995 q 702 912 661 995 q 724 808 724 865 q 711 712 724 763 q 602 520 686 617 l 604 520 q 595 512 600 516 q 578 494 587 503 l 580 500 q 420 429 494 429 q 298 500 347 429 l 296 494 q 290 512 293 503 q 286 520 288 516 l 288 520 q 270 628 270 574 q 281 712 270 670 q 390 904 307 807 l 388 904 q 397 912 393 908 q 413 930 405 921 l 412 924 m 586 520 l 614 627 q 615 635 615 631 q 582 678 615 656 q 642 729 635 704 l 667 823 q 669 844 669 834 q 659 880 669 865 q 607 904 641 904 l 406 904 l 385 825 l 526 825 q 555 812 545 825 q 562 793 562 804 q 559 780 562 787 l 552 751 l 366 751 l 304 520 l 399 520 l 440 673 l 486 673 q 514 660 505 673 q 520 640 520 651 q 519 627 520 633 l 490 520 l 586 520 m 574 1006 q 392 920 481 1006 q 270 712 303 834 q 256 614 256 660 q 281 505 256 553 q 417 418 324 418 q 600 504 510 418 q 722 712 689 590 q 736 810 736 765 q 711 920 736 871 q 574 1006 667 1006 m 745 712 q 612 489 710 582 q 411 395 515 395 q 260 489 307 395 q 233 609 233 543 q 247 712 233 657 q 379 936 282 842 q 581 1029 477 1029 q 732 936 684 1029 q 760 816 760 882 q 745 712 760 768 z "},"":{"ha":1119,"x_min":0,"x_max":1017,"o":"m 136 0 q 0 136 0 0 l 0 882 q 136 1017 0 1017 l 882 1017 q 1017 882 1017 1017 l 1017 136 q 882 0 1017 0 l 136 0 m 882 17 q 1000 136 1000 17 l 1000 882 q 882 1000 1000 1000 l 136 1000 q 17 882 18 1000 l 17 136 q 136 17 18 17 l 882 17 z "},"":{"ha":1119,"x_min":0,"x_max":1017,"o":"m 136 0 q 0 136 0 0 l 0 882 q 136 1017 0 1017 l 882 1017 q 1017 882 1017 1017 l 1017 136 q 882 0 1017 0 l 136 0 m 882 17 q 1000 136 1000 17 l 1000 882 q 882 1000 1000 1000 l 136 1000 q 17 882 18 1000 l 17 136 q 136 17 18 17 l 882 17 z "},"":{"ha":1119,"x_min":0,"x_max":1017,"o":"m 136 0 q 0 136 0 0 l 0 882 q 136 1017 0 1017 l 882 1017 q 1017 882 1017 1017 l 1017 136 q 882 0 1017 0 l 136 0 m 882 17 q 1000 136 1000 17 l 1000 882 q 882 1000 1000 1000 l 136 1000 q 17 882 18 1000 l 17 136 q 136 17 18 17 l 882 17 z "},"":{"ha":1119,"x_min":0,"x_max":1017,"o":"m 136 0 q 0 136 0 0 l 0 882 q 136 1017 0 1017 l 882 1017 q 1017 882 1017 1017 l 1017 136 q 882 0 1017 0 l 136 0 m 882 17 q 1000 136 1000 17 l 1000 882 q 882 1000 1000 1000 l 136 1000 q 17 882 18 1000 l 17 136 q 136 17 18 17 l 882 17 z "},"":{"ha":1119,"x_min":0,"x_max":1017,"o":"m 136 0 q 0 136 0 0 l 0 882 q 136 1017 0 1017 l 882 1017 q 1017 882 1017 1017 l 1017 136 q 882 0 1017 0 l 136 0 m 882 17 q 1000 136 1000 17 l 1000 882 q 882 1000 1000 1000 l 136 1000 q 17 882 18 1000 l 17 136 q 136 17 18 17 l 882 17 z "},"":{"ha":610,"x_min":309,"x_max":907,"o":"m 833 1209 l 534 1209 l 354 995 l 500 995 l 833 1209 m 502 972 l 309 972 l 527 1232 l 907 1232 l 502 972 z "},"":{"ha":746,"x_min":-20,"x_max":884,"o":"m 481 701 l 267 701 l 9 -260 l 224 -260 l 297 12 l 670 12 l 854 701 l 640 701 l 504 192 l 425 192 q 375 216 392 192 q 363 250 363 231 q 366 271 363 260 l 481 701 m 389 271 q 387 256 387 264 q 395 232 387 243 q 431 215 408 215 l 487 215 l 623 724 l 884 724 l 686 -12 l 313 -12 l 241 -283 l -20 -283 l 250 724 l 511 724 l 389 271 z "},"":{"ha":1119,"x_min":0,"x_max":1017,"o":"m 136 0 q 0 136 0 0 l 0 882 q 136 1017 0 1017 l 882 1017 q 1017 882 1017 1017 l 1017 136 q 882 0 1017 0 l 136 0 m 882 17 q 1000 136 1000 17 l 1000 882 q 882 1000 1000 1000 l 136 1000 q 17 882 18 1000 l 17 136 q 136 17 18 17 l 882 17 z "},"":{"ha":373,"x_min":153,"x_max":474,"o":"m 182 385 l 397 385 l 445 565 l 231 565 l 182 385 m 214 588 l 474 588 l 414 361 l 153 361 l 214 588 z "},"":{"ha":509,"x_min":-20,"x_max":473,"o":"m 215 0 q 114 -79 194 -79 l 57 -79 l 9 -260 l 168 -260 q 411 -68 359 -260 l 444 56 l 229 56 l 215 0 m 212 79 l 473 79 l 434 -68 q 161 -283 376 -283 l -20 -283 l 40 -56 l 120 -56 q 192 0 177 -56 l 212 79 z "},"":{"ha":1119,"x_min":0,"x_max":1017,"o":"m 136 0 q 0 136 0 0 l 0 882 q 136 1017 0 1017 l 882 1017 q 1017 882 1017 1017 l 1017 136 q 882 0 1017 0 l 136 0 m 882 17 q 1000 136 1000 17 l 1000 882 q 882 1000 1000 1000 l 136 1000 q 17 882 18 1000 l 17 136 q 136 17 18 17 l 882 17 z "},"":{"ha":1119,"x_min":0,"x_max":1017,"o":"m 136 0 q 0 136 0 0 l 0 882 q 136 1017 0 1017 l 882 1017 q 1017 882 1017 1017 l 1017 136 q 882 0 1017 0 l 136 0 m 882 17 q 1000 136 1000 17 l 1000 882 q 882 1000 1000 1000 l 136 1000 q 17 882 18 1000 l 17 136 q 136 17 18 17 l 882 17 z "},"":{"ha":1017,"x_min":100,"x_max":1102,"o":"m 1069 509 l 880 768 l 641 768 l 831 509 l 501 249 l 740 249 l 1069 509 m 730 509 l 541 768 l 302 768 l 492 509 l 162 249 l 401 249 l 730 509 m 743 226 l 439 226 l 798 509 l 591 791 l 895 791 l 1102 509 l 743 226 m 404 226 l 100 226 l 459 509 l 252 791 l 556 791 l 763 509 l 404 226 z "},"":{"ha":1119,"x_min":0,"x_max":1017,"o":"m 136 0 q 0 136 0 0 l 0 882 q 136 1017 0 1017 l 882 1017 q 1017 882 1017 1017 l 1017 136 q 882 0 1017 0 l 136 0 m 882 17 q 1000 136 1000 17 l 1000 882 q 882 1000 1000 1000 l 136 1000 q 17 882 18 1000 l 17 136 q 136 17 18 17 l 882 17 z "},"":{"ha":1119,"x_min":0,"x_max":1017,"o":"m 136 0 q 0 136 0 0 l 0 882 q 136 1017 0 1017 l 882 1017 q 1017 882 1017 1017 l 1017 136 q 882 0 1017 0 l 136 0 m 882 17 q 1000 136 1000 17 l 1000 882 q 882 1000 1000 1000 l 136 1000 q 17 882 18 1000 l 17 136 q 136 17 18 17 l 882 17 z "},"":{"ha":1119,"x_min":0,"x_max":1017,"o":"m 136 0 q 0 136 0 0 l 0 882 q 136 1017 0 1017 l 882 1017 q 1017 882 1017 1017 l 1017 136 q 882 0 1017 0 l 136 0 m 882 17 q 1000 136 1000 17 l 1000 882 q 882 1000 1000 1000 l 136 1000 q 17 882 18 1000 l 17 136 q 136 17 18 17 l 882 17 z "},"":{"ha":746,"x_min":118,"x_max":870,"o":"m 554 633 l 539 576 q 481 531 527 531 q 277 455 374 531 q 152 271 181 379 q 142 202 142 235 q 179 87 142 138 q 342 12 235 12 l 670 12 l 718 192 l 425 192 q 375 216 392 192 q 363 250 363 231 q 366 271 363 260 q 405 327 375 304 q 467 351 435 351 q 744 543 693 351 l 768 633 l 554 633 m 793 724 l 841 904 l 627 904 l 578 724 l 793 724 m 798 656 l 767 543 q 460 328 709 328 q 416 311 437 328 q 389 271 395 294 q 387 256 387 264 q 395 232 387 243 q 431 215 408 215 l 747 215 l 686 -12 l 336 -12 q 158 71 218 -12 q 118 195 118 125 q 129 271 118 231 q 266 471 161 389 q 488 554 370 554 q 516 576 510 554 l 537 656 l 798 656 m 549 701 l 610 927 l 870 927 l 810 701 l 549 701 z "},"":{"ha":814,"x_min":16,"x_max":924,"o":"m 354 192 l 536 565 l 323 565 l 52 12 l 769 12 l 804 828 l 804 836 q 717 904 804 904 l 321 904 l 273 724 l 576 724 l 564 192 l 354 192 m 745 995 l 891 995 l 826 1209 l 528 1209 l 745 995 m 466 1232 l 846 1232 l 924 972 l 731 972 l 466 1232 m 548 541 l 389 215 l 540 215 l 548 541 m 549 588 l 552 701 l 244 701 l 304 927 l 723 927 q 828 843 828 927 l 828 833 l 791 -12 l 16 -12 l 310 588 l 549 588 z "},"":{"ha":814,"x_min":16,"x_max":1008,"o":"m 354 192 l 536 565 l 323 565 l 52 12 l 769 12 l 804 828 l 804 836 q 717 904 804 904 l 321 904 l 273 724 l 576 724 l 564 192 l 354 192 m 935 1209 l 636 1209 l 456 995 l 602 995 l 935 1209 m 604 972 l 410 972 l 629 1232 l 1008 1232 l 604 972 m 548 541 l 389 215 l 540 215 l 548 541 m 549 588 l 552 701 l 244 701 l 304 927 l 723 927 q 828 843 828 927 l 828 833 l 791 -12 l 16 -12 l 310 588 l 549 588 z "},"":{"ha":814,"x_min":16,"x_max":961,"o":"m 354 192 l 536 565 l 323 565 l 52 12 l 769 12 l 804 828 l 804 836 q 717 904 804 904 l 321 904 l 273 724 l 576 724 l 564 192 l 354 192 m 714 995 l 922 995 l 827 1209 l 635 1209 l 425 995 l 633 995 l 692 1066 l 714 995 m 680 1020 l 640 972 l 374 972 l 629 1232 l 845 1232 l 961 972 l 694 972 l 680 1020 m 548 541 l 389 215 l 540 215 l 548 541 m 549 588 l 552 701 l 244 701 l 304 927 l 723 927 q 828 843 828 927 l 828 833 l 791 -12 l 16 -12 l 310 588 l 549 588 z "},"":{"ha":814,"x_min":16,"x_max":1043,"o":"m 354 192 l 536 565 l 323 565 l 52 12 l 769 12 l 804 828 l 804 836 q 717 904 804 904 l 321 904 l 273 724 l 576 724 l 564 192 l 354 192 m 406 1056 l 569 996 l 634 1048 q 775 995 743 995 q 843 1025 804 995 l 999 1148 l 836 1208 l 770 1156 q 629 1209 661 1209 q 562 1179 600 1209 l 406 1056 m 549 1195 q 635 1232 597 1232 q 772 1183 671 1232 l 836 1234 l 1043 1158 l 855 1009 q 769 972 808 972 q 632 1021 733 972 l 568 970 l 361 1046 l 549 1195 m 548 541 l 389 215 l 540 215 l 548 541 m 549 588 l 552 701 l 244 701 l 304 927 l 723 927 q 828 843 828 927 l 828 833 l 791 -12 l 16 -12 l 310 588 l 549 588 z "},"":{"ha":814,"x_min":16,"x_max":1020,"o":"m 354 192 l 536 565 l 323 565 l 52 12 l 769 12 l 804 828 l 804 836 q 717 904 804 904 l 321 904 l 273 724 l 576 724 l 564 192 l 354 192 m 728 1029 l 942 1029 l 991 1209 l 777 1209 l 728 1029 m 422 1029 l 637 1029 l 686 1209 l 471 1209 l 422 1029 m 760 1232 l 1020 1232 l 959 1006 l 699 1006 l 760 1232 m 454 1232 l 715 1232 l 654 1006 l 393 1006 l 454 1232 m 548 541 l 389 215 l 540 215 l 548 541 m 549 588 l 552 701 l 244 701 l 304 927 l 723 927 q 828 843 828 927 l 828 833 l 791 -12 l 16 -12 l 310 588 l 549 588 z "},"":{"ha":814,"x_min":16,"x_max":854,"o":"m 354 192 l 536 565 l 323 565 l 52 12 l 769 12 l 804 828 l 804 836 q 717 904 804 904 l 321 904 l 273 724 l 576 724 l 564 192 l 354 192 m 673 995 q 770 1026 726 995 q 826 1102 814 1058 q 830 1128 830 1116 q 811 1177 830 1155 q 731 1209 783 1209 q 634 1177 679 1209 q 578 1102 590 1145 q 574 1077 574 1089 q 594 1027 574 1048 q 673 995 621 995 m 667 972 q 574 1010 607 972 q 551 1071 551 1036 q 555 1102 551 1086 q 623 1194 570 1156 q 737 1232 677 1232 q 831 1194 798 1232 q 854 1134 854 1168 q 849 1102 854 1119 q 781 1009 835 1047 q 667 972 728 972 m 548 541 l 389 215 l 540 215 l 548 541 m 549 588 l 552 701 l 244 701 l 304 927 l 723 927 q 828 843 828 927 l 828 833 l 791 -12 l 16 -12 l 310 588 l 549 588 z "},"":{"ha":1119,"x_min":16,"x_max":1311,"o":"m 321 904 l 273 724 l 576 724 l 564 192 l 354 192 l 536 565 l 323 565 l 52 12 l 1043 12 l 1091 192 l 786 192 l 838 385 l 1075 385 l 1123 565 l 886 565 l 928 724 l 1234 724 l 1282 904 l 321 904 m 548 541 l 389 215 l 540 215 l 548 541 m 549 588 l 552 701 l 244 701 l 304 927 l 1311 927 l 1251 701 l 945 701 l 915 588 l 1152 588 l 1092 361 l 854 361 l 815 215 l 1120 215 l 1059 -12 l 16 -12 l 310 588 l 549 588 z "},"":{"ha":678,"x_min":83,"x_max":870,"o":"m 321 12 q 217 -79 297 -79 l 160 -79 l 112 -260 l 271 -260 q 514 -68 463 -260 l 536 12 l 602 12 l 650 192 l 425 192 q 375 216 392 192 q 363 250 363 231 q 366 271 363 260 l 467 644 q 505 700 475 677 q 567 724 534 724 l 793 724 l 841 904 l 496 904 q 359 853 424 904 q 275 729 294 802 l 130 186 q 123 139 123 161 q 148 63 123 96 q 258 12 185 12 l 321 12 m 292 -12 l 251 -12 q 127 47 169 -12 q 99 133 99 84 q 106 186 99 158 l 252 729 q 347 869 273 811 q 503 927 420 927 l 870 927 l 810 701 l 561 701 q 517 684 538 701 q 490 644 496 667 l 389 271 q 387 256 387 264 q 395 232 387 243 q 431 215 408 215 l 680 215 l 618 -12 l 552 -12 l 537 -68 q 264 -283 479 -283 l 83 -283 l 143 -56 l 223 -56 q 292 -12 280 -56 z "},"":{"ha":678,"x_min":53,"x_max":870,"o":"m 793 724 l 841 904 l 321 904 l 273 724 l 793 724 m 83 12 l 602 12 l 650 192 l 345 192 l 397 385 l 634 385 l 682 565 l 231 565 l 83 12 m 677 995 l 823 995 l 758 1209 l 460 1209 l 677 995 m 244 701 l 304 927 l 870 927 l 810 701 l 244 701 m 214 588 l 711 588 l 651 361 l 414 361 l 374 215 l 680 215 l 618 -12 l 53 -12 l 214 588 m 398 1232 l 778 1232 l 857 972 l 663 972 l 398 1232 z "},"":{"ha":678,"x_min":53,"x_max":941,"o":"m 793 724 l 841 904 l 321 904 l 273 724 l 793 724 m 83 12 l 602 12 l 650 192 l 345 192 l 397 385 l 634 385 l 682 565 l 231 565 l 83 12 m 867 1209 l 568 1209 l 388 995 l 534 995 l 867 1209 m 244 701 l 304 927 l 870 927 l 810 701 l 244 701 m 214 588 l 711 588 l 651 361 l 414 361 l 374 215 l 680 215 l 618 -12 l 53 -12 l 214 588 m 536 972 l 342 972 l 561 1232 l 941 1232 l 536 972 z "},"":{"ha":678,"x_min":53,"x_max":893,"o":"m 793 724 l 841 904 l 321 904 l 273 724 l 793 724 m 83 12 l 602 12 l 650 192 l 345 192 l 397 385 l 634 385 l 682 565 l 231 565 l 83 12 m 646 995 l 854 995 l 759 1209 l 568 1209 l 357 995 l 565 995 l 625 1066 l 646 995 m 244 701 l 304 927 l 870 927 l 810 701 l 244 701 m 214 588 l 711 588 l 651 361 l 414 361 l 374 215 l 680 215 l 618 -12 l 53 -12 l 214 588 m 612 1020 l 572 972 l 306 972 l 562 1232 l 777 1232 l 893 972 l 627 972 l 612 1020 z "},"":{"ha":678,"x_min":53,"x_max":952,"o":"m 793 724 l 841 904 l 321 904 l 273 724 l 793 724 m 83 12 l 602 12 l 650 192 l 345 192 l 397 385 l 634 385 l 682 565 l 231 565 l 83 12 m 660 1029 l 874 1029 l 923 1209 l 709 1209 l 660 1029 m 355 1029 l 569 1029 l 618 1209 l 404 1209 l 355 1029 m 244 701 l 304 927 l 870 927 l 810 701 l 244 701 m 214 588 l 711 588 l 651 361 l 414 361 l 374 215 l 680 215 l 618 -12 l 53 -12 l 214 588 m 692 1232 l 952 1232 l 891 1006 l 631 1006 l 692 1232 m 387 1232 l 647 1232 l 586 1006 l 326 1006 l 387 1232 z "},"":{"ha":373,"x_min":53,"x_max":704,"o":"m 321 904 l 83 12 l 297 12 l 536 904 l 321 904 m 525 995 l 671 995 l 606 1209 l 307 1209 l 525 995 m 565 927 l 313 -12 l 53 -12 l 304 927 l 565 927 m 245 1232 l 625 1232 l 704 972 l 511 972 l 245 1232 z "},"":{"ha":373,"x_min":53,"x_max":788,"o":"m 321 904 l 83 12 l 297 12 l 536 904 l 321 904 m 714 1209 l 416 1209 l 235 995 l 381 995 l 714 1209 m 565 927 l 313 -12 l 53 -12 l 304 927 l 565 927 m 383 972 l 190 972 l 408 1232 l 788 1232 l 383 972 z "},"":{"ha":373,"x_min":53,"x_max":741,"o":"m 321 904 l 83 12 l 297 12 l 536 904 l 321 904 m 494 995 l 702 995 l 606 1209 l 415 1209 l 204 995 l 412 995 l 472 1066 l 494 995 m 565 927 l 313 -12 l 53 -12 l 304 927 l 565 927 m 460 1020 l 420 972 l 153 972 l 409 1232 l 625 1232 l 741 972 l 474 972 l 460 1020 z "},"":{"ha":373,"x_min":53,"x_max":800,"o":"m 321 904 l 83 12 l 297 12 l 536 904 l 321 904 m 507 1029 l 722 1029 l 770 1209 l 556 1209 l 507 1029 m 202 1029 l 416 1029 l 465 1209 l 251 1209 l 202 1029 m 565 927 l 313 -12 l 53 -12 l 304 927 l 565 927 m 539 1232 l 800 1232 l 739 1006 l 478 1006 l 539 1232 m 234 1232 l 494 1232 l 433 1006 l 173 1006 l 234 1232 z "},"":{"ha":814,"x_min":121,"x_max":960,"o":"m 532 385 l 581 565 l 231 565 l 182 385 l 250 385 l 151 12 l 563 12 q 700 63 635 12 q 785 186 765 114 l 930 729 q 937 777 937 754 q 912 853 937 819 q 802 904 874 904 l 389 904 l 341 724 l 635 724 q 684 701 667 724 q 696 665 696 684 q 693 644 696 655 l 593 271 q 554 215 584 239 q 492 192 525 192 l 413 192 l 465 385 l 532 385 m 481 361 l 442 215 l 498 215 q 543 232 522 215 q 570 271 564 248 l 670 644 q 672 659 672 652 q 664 684 672 673 q 629 701 652 701 l 312 701 l 372 927 l 808 927 q 932 869 890 927 q 960 782 960 831 q 953 729 960 757 l 808 186 q 712 46 785 104 q 556 -12 638 -12 l 121 -12 l 221 361 l 153 361 l 214 588 l 610 588 l 549 361 l 481 361 z "},"":{"ha":746,"x_min":53,"x_max":1009,"o":"m 456 12 l 670 12 l 862 729 q 869 777 869 754 q 844 853 869 819 q 734 904 806 904 l 321 904 l 273 724 l 567 724 q 616 701 600 724 q 628 665 628 684 q 625 644 628 655 l 456 12 m 445 565 l 231 565 l 83 12 l 297 12 l 445 565 m 372 1056 l 535 996 l 600 1048 q 741 995 709 995 q 809 1025 770 995 l 965 1148 l 802 1208 l 736 1156 q 595 1209 627 1209 q 528 1179 566 1209 l 372 1056 m 602 644 q 604 659 604 652 q 596 684 604 673 q 561 701 584 701 l 244 701 l 304 927 l 740 927 q 865 869 822 927 q 892 782 892 831 q 885 729 892 757 l 686 -12 l 426 -12 l 602 644 m 313 -12 l 53 -12 l 214 588 l 474 588 l 313 -12 m 515 1195 q 602 1232 563 1232 q 739 1183 637 1232 l 802 1234 l 1009 1158 l 821 1009 q 735 972 774 972 q 598 1021 699 972 l 534 970 l 327 1046 l 515 1195 z "},"":{"ha":746,"x_min":99,"x_max":892,"o":"m 495 12 q 632 63 568 12 q 717 186 697 114 l 862 729 q 869 777 869 754 q 844 853 869 819 q 734 904 806 904 l 496 904 q 359 853 424 904 q 275 729 294 802 l 130 186 q 123 139 123 161 q 148 63 123 96 q 258 12 185 12 l 495 12 m 389 271 q 387 256 387 264 q 395 232 387 243 q 431 215 408 215 q 475 232 454 215 q 502 271 496 248 l 602 644 q 604 659 604 652 q 596 684 604 673 q 561 701 584 701 q 517 684 538 701 q 490 644 496 667 l 389 271 m 711 995 l 857 995 l 792 1209 l 494 1209 l 711 995 m 251 -12 q 127 47 169 -12 q 99 133 99 84 q 106 186 99 158 l 252 729 q 347 869 273 811 q 503 927 420 927 l 740 927 q 865 869 822 927 q 892 782 892 831 q 885 729 892 757 l 740 186 q 644 46 718 104 q 488 -12 570 -12 l 251 -12 m 467 644 q 505 700 475 677 q 567 724 534 724 q 616 701 600 724 q 628 665 628 684 q 625 644 628 655 l 525 271 q 487 215 516 239 q 425 192 457 192 q 375 216 392 192 q 363 250 363 231 q 366 271 363 260 l 467 644 m 432 1232 l 812 1232 l 890 972 l 697 972 l 432 1232 z "},"":{"ha":746,"x_min":99,"x_max":975,"o":"m 495 12 q 632 63 568 12 q 717 186 697 114 l 862 729 q 869 777 869 754 q 844 853 869 819 q 734 904 806 904 l 496 904 q 359 853 424 904 q 275 729 294 802 l 130 186 q 123 139 123 161 q 148 63 123 96 q 258 12 185 12 l 495 12 m 389 271 q 387 256 387 264 q 395 232 387 243 q 431 215 408 215 q 475 232 454 215 q 502 271 496 248 l 602 644 q 604 659 604 652 q 596 684 604 673 q 561 701 584 701 q 517 684 538 701 q 490 644 496 667 l 389 271 m 901 1209 l 602 1209 l 422 995 l 568 995 l 901 1209 m 251 -12 q 127 47 169 -12 q 99 133 99 84 q 106 186 99 158 l 252 729 q 347 869 273 811 q 503 927 420 927 l 740 927 q 865 869 822 927 q 892 782 892 831 q 885 729 892 757 l 740 186 q 644 46 718 104 q 488 -12 570 -12 l 251 -12 m 467 644 q 505 700 475 677 q 567 724 534 724 q 616 701 600 724 q 628 665 628 684 q 625 644 628 655 l 525 271 q 487 215 516 239 q 425 192 457 192 q 375 216 392 192 q 363 250 363 231 q 366 271 363 260 l 467 644 m 570 972 l 376 972 l 595 1232 l 975 1232 l 570 972 z "},"":{"ha":746,"x_min":99,"x_max":927,"o":"m 495 12 q 632 63 568 12 q 717 186 697 114 l 862 729 q 869 777 869 754 q 844 853 869 819 q 734 904 806 904 l 496 904 q 359 853 424 904 q 275 729 294 802 l 130 186 q 123 139 123 161 q 148 63 123 96 q 258 12 185 12 l 495 12 m 389 271 q 387 256 387 264 q 395 232 387 243 q 431 215 408 215 q 475 232 454 215 q 502 271 496 248 l 602 644 q 604 659 604 652 q 596 684 604 673 q 561 701 584 701 q 517 684 538 701 q 490 644 496 667 l 389 271 m 680 995 l 888 995 l 793 1209 l 602 1209 l 391 995 l 599 995 l 659 1066 l 680 995 m 251 -12 q 127 47 169 -12 q 99 133 99 84 q 106 186 99 158 l 252 729 q 347 869 273 811 q 503 927 420 927 l 740 927 q 865 869 822 927 q 892 782 892 831 q 885 729 892 757 l 740 186 q 644 46 718 104 q 488 -12 570 -12 l 251 -12 m 467 644 q 505 700 475 677 q 567 724 534 724 q 616 701 600 724 q 628 665 628 684 q 625 644 628 655 l 525 271 q 487 215 516 239 q 425 192 457 192 q 375 216 392 192 q 363 250 363 231 q 366 271 363 260 l 467 644 m 646 1020 l 606 972 l 340 972 l 595 1232 l 811 1232 l 927 972 l 661 972 l 646 1020 z "},"":{"ha":746,"x_min":99,"x_max":1009,"o":"m 495 12 q 632 63 568 12 q 717 186 697 114 l 862 729 q 869 777 869 754 q 844 853 869 819 q 734 904 806 904 l 496 904 q 359 853 424 904 q 275 729 294 802 l 130 186 q 123 139 123 161 q 148 63 123 96 q 258 12 185 12 l 495 12 m 389 271 q 387 256 387 264 q 395 232 387 243 q 431 215 408 215 q 475 232 454 215 q 502 271 496 248 l 602 644 q 604 659 604 652 q 596 684 604 673 q 561 701 584 701 q 517 684 538 701 q 490 644 496 667 l 389 271 m 372 1056 l 535 996 l 600 1048 q 741 995 709 995 q 809 1025 770 995 l 965 1148 l 802 1208 l 736 1156 q 595 1209 627 1209 q 528 1179 566 1209 l 372 1056 m 251 -12 q 127 47 169 -12 q 99 133 99 84 q 106 186 99 158 l 252 729 q 347 869 273 811 q 503 927 420 927 l 740 927 q 865 869 822 927 q 892 782 892 831 q 885 729 892 757 l 740 186 q 644 46 718 104 q 488 -12 570 -12 l 251 -12 m 467 644 q 505 700 475 677 q 567 724 534 724 q 616 701 600 724 q 628 665 628 684 q 625 644 628 655 l 525 271 q 487 215 516 239 q 425 192 457 192 q 375 216 392 192 q 363 250 363 231 q 366 271 363 260 l 467 644 m 515 1195 q 602 1232 563 1232 q 739 1183 637 1232 l 802 1234 l 1009 1158 l 821 1009 q 735 972 774 972 q 598 1021 699 972 l 534 970 l 327 1046 l 515 1195 z "},"":{"ha":746,"x_min":99,"x_max":986,"o":"m 495 12 q 632 63 568 12 q 717 186 697 114 l 862 729 q 869 777 869 754 q 844 853 869 819 q 734 904 806 904 l 496 904 q 359 853 424 904 q 275 729 294 802 l 130 186 q 123 139 123 161 q 148 63 123 96 q 258 12 185 12 l 495 12 m 389 271 q 387 256 387 264 q 395 232 387 243 q 431 215 408 215 q 475 232 454 215 q 502 271 496 248 l 602 644 q 604 659 604 652 q 596 684 604 673 q 561 701 584 701 q 517 684 538 701 q 490 644 496 667 l 389 271 m 694 1029 l 908 1029 l 957 1209 l 743 1209 l 694 1029 m 389 1029 l 603 1029 l 652 1209 l 437 1209 l 389 1029 m 251 -12 q 127 47 169 -12 q 99 133 99 84 q 106 186 99 158 l 252 729 q 347 869 273 811 q 503 927 420 927 l 740 927 q 865 869 822 927 q 892 782 892 831 q 885 729 892 757 l 740 186 q 644 46 718 104 q 488 -12 570 -12 l 251 -12 m 467 644 q 505 700 475 677 q 567 724 534 724 q 616 701 600 724 q 628 665 628 684 q 625 644 628 655 l 525 271 q 487 215 516 239 q 425 192 457 192 q 375 216 392 192 q 363 250 363 231 q 366 271 363 260 l 467 644 m 726 1232 l 986 1232 l 925 1006 l 665 1006 l 726 1232 m 420 1232 l 681 1232 l 620 1006 l 359 1006 l 420 1232 z "},"":{"ha":882,"x_min":70,"x_max":1057,"o":"m 121 113 l 363 113 l 515 275 l 579 113 l 823 113 l 686 458 l 1007 802 l 798 802 l 621 622 l 548 802 l 304 802 l 447 446 l 121 113 m 418 446 l 267 825 l 566 825 l 631 663 l 791 825 l 1057 825 l 713 458 l 860 90 l 561 90 l 503 233 l 370 90 l 70 90 l 418 446 z "},"":{"ha":746,"x_min":99,"x_max":892,"o":"m 862 729 q 869 777 869 754 q 844 853 869 819 q 734 904 806 904 l 496 904 q 359 853 424 904 q 275 729 294 802 l 130 186 q 123 139 123 161 q 148 63 123 96 q 258 12 185 12 l 495 12 q 632 63 568 12 q 717 186 697 114 l 862 729 m 740 186 q 644 46 718 104 q 488 -12 570 -12 l 251 -12 q 127 47 169 -12 q 99 133 99 84 q 106 186 99 158 l 252 729 q 347 869 273 811 q 503 927 420 927 l 740 927 q 865 869 822 927 q 892 782 892 831 q 885 729 892 757 l 740 186 m 399 229 q 431 215 410 215 q 475 232 454 215 q 502 271 496 248 l 524 353 l 399 229 m 593 688 l 595 684 l 596 685 q 561 701 584 701 q 517 684 538 701 q 490 644 496 667 l 467 562 l 593 688 m 425 492 l 467 644 q 505 700 475 677 q 567 724 534 724 q 618 700 600 724 q 624 690 618 698 l 425 492 m 566 424 l 525 271 q 487 215 516 239 q 425 192 457 192 q 376 215 392 192 q 368 225 374 216 l 566 424 z "},"":{"ha":746,"x_min":99,"x_max":938,"o":"m 525 271 q 487 215 516 239 q 425 192 457 192 q 375 216 392 192 q 363 250 363 231 q 366 271 363 260 l 536 904 l 321 904 l 130 186 q 123 139 123 161 q 148 63 123 96 q 258 12 185 12 l 495 12 q 632 63 568 12 q 717 186 697 114 l 909 904 l 694 904 l 525 271 m 711 995 l 857 995 l 792 1209 l 494 1209 l 711 995 m 677 927 l 938 927 l 740 186 q 644 46 718 104 q 488 -12 570 -12 l 251 -12 q 127 47 169 -12 q 99 133 99 84 q 106 186 99 158 l 304 927 l 565 927 l 389 271 q 387 256 387 264 q 395 232 387 243 q 431 215 408 215 q 475 232 454 215 q 502 271 496 248 l 677 927 m 432 1232 l 812 1232 l 890 972 l 697 972 l 432 1232 z "},"":{"ha":746,"x_min":99,"x_max":975,"o":"m 525 271 q 487 215 516 239 q 425 192 457 192 q 375 216 392 192 q 363 250 363 231 q 366 271 363 260 l 536 904 l 321 904 l 130 186 q 123 139 123 161 q 148 63 123 96 q 258 12 185 12 l 495 12 q 632 63 568 12 q 717 186 697 114 l 909 904 l 694 904 l 525 271 m 901 1209 l 602 1209 l 422 995 l 568 995 l 901 1209 m 677 927 l 938 927 l 740 186 q 644 46 718 104 q 488 -12 570 -12 l 251 -12 q 127 47 169 -12 q 99 133 99 84 q 106 186 99 158 l 304 927 l 565 927 l 389 271 q 387 256 387 264 q 395 232 387 243 q 431 215 408 215 q 475 232 454 215 q 502 271 496 248 l 677 927 m 570 972 l 376 972 l 595 1232 l 975 1232 l 570 972 z "},"":{"ha":746,"x_min":99,"x_max":938,"o":"m 525 271 q 487 215 516 239 q 425 192 457 192 q 375 216 392 192 q 363 250 363 231 q 366 271 363 260 l 536 904 l 321 904 l 130 186 q 123 139 123 161 q 148 63 123 96 q 258 12 185 12 l 495 12 q 632 63 568 12 q 717 186 697 114 l 909 904 l 694 904 l 525 271 m 680 995 l 888 995 l 793 1209 l 602 1209 l 391 995 l 599 995 l 659 1066 l 680 995 m 677 927 l 938 927 l 740 186 q 644 46 718 104 q 488 -12 570 -12 l 251 -12 q 127 47 169 -12 q 99 133 99 84 q 106 186 99 158 l 304 927 l 565 927 l 389 271 q 387 256 387 264 q 395 232 387 243 q 431 215 408 215 q 475 232 454 215 q 502 271 496 248 l 677 927 m 646 1020 l 606 972 l 340 972 l 595 1232 l 811 1232 l 927 972 l 661 972 l 646 1020 z "},"":{"ha":746,"x_min":99,"x_max":986,"o":"m 525 271 q 487 215 516 239 q 425 192 457 192 q 375 216 392 192 q 363 250 363 231 q 366 271 363 260 l 536 904 l 321 904 l 130 186 q 123 139 123 161 q 148 63 123 96 q 258 12 185 12 l 495 12 q 632 63 568 12 q 717 186 697 114 l 909 904 l 694 904 l 525 271 m 694 1029 l 908 1029 l 957 1209 l 743 1209 l 694 1029 m 389 1029 l 603 1029 l 652 1209 l 437 1209 l 389 1029 m 677 927 l 938 927 l 740 186 q 644 46 718 104 q 488 -12 570 -12 l 251 -12 q 127 47 169 -12 q 99 133 99 84 q 106 186 99 158 l 304 927 l 565 927 l 389 271 q 387 256 387 264 q 395 232 387 243 q 431 215 408 215 q 475 232 454 215 q 502 271 496 248 l 677 927 m 726 1232 l 986 1232 l 925 1006 l 665 1006 l 726 1232 m 420 1232 l 681 1232 l 620 1006 l 359 1006 l 420 1232 z "},"":{"ha":746,"x_min":199,"x_max":975,"o":"m 524 565 q 475 589 492 565 q 464 623 464 604 q 467 644 464 633 l 536 904 l 321 904 l 229 559 q 222 512 222 534 q 248 436 222 469 q 369 385 285 385 l 269 12 l 484 12 l 583 385 q 732 436 667 385 q 817 559 797 487 l 909 904 l 694 904 l 625 644 q 587 588 616 612 q 524 565 557 565 m 901 1209 l 602 1209 l 422 995 l 568 995 l 901 1209 m 530 588 q 574 605 553 588 q 602 644 595 621 l 677 927 l 938 927 l 840 559 q 744 419 818 477 q 600 361 671 361 l 500 -12 l 239 -12 l 340 361 q 227 420 269 361 q 199 507 199 458 q 206 559 199 532 l 304 927 l 565 927 l 490 644 q 487 629 487 636 q 495 605 487 615 q 530 588 507 588 m 570 972 l 376 972 l 595 1232 l 975 1232 l 570 972 z "},"":{"ha":746,"x_min":53,"x_max":847,"o":"m 83 12 l 297 12 l 351 215 l 549 215 q 687 266 622 215 q 771 390 751 317 l 817 559 q 823 607 823 585 q 799 684 823 650 q 688 734 761 734 l 490 734 l 536 904 l 321 904 l 83 12 m 459 531 l 429 418 l 485 418 q 529 435 508 418 q 557 475 550 452 q 559 490 559 482 q 551 515 559 503 q 515 531 538 531 l 459 531 m 304 927 l 565 927 l 519 758 l 694 758 q 819 700 777 758 q 847 612 847 661 q 840 559 847 587 l 794 390 q 699 250 772 308 q 543 192 625 192 l 368 192 l 313 -12 l 53 -12 l 304 927 m 522 554 q 571 531 554 554 q 583 495 583 515 q 580 475 583 486 q 541 419 571 442 q 479 395 511 395 l 399 395 l 442 554 l 522 554 z "},"":{"ha":746,"x_min":53,"x_max":892,"o":"m 467 644 q 505 700 475 677 q 567 724 534 724 q 616 701 600 724 q 628 665 628 684 q 625 644 628 655 q 587 588 616 612 q 524 565 557 565 l 502 564 l 454 385 l 476 385 q 526 361 509 385 q 537 326 537 345 q 534 305 537 316 l 525 271 q 487 215 516 239 q 425 192 457 192 l 402 192 l 354 12 l 495 12 q 632 63 568 12 q 717 186 697 114 l 766 373 q 769 394 769 384 q 714 475 769 438 q 821 576 806 519 l 862 729 q 869 777 869 754 q 844 853 869 819 q 734 904 806 904 l 496 904 q 359 853 424 904 q 275 729 294 802 l 83 12 l 297 12 l 467 644 m 490 644 l 313 -12 l 53 -12 l 252 729 q 347 869 273 811 q 503 927 420 927 l 740 927 q 865 869 822 927 q 892 782 892 831 q 885 729 892 757 l 844 576 q 762 475 825 506 q 795 410 795 452 q 789 373 795 393 l 740 186 q 644 46 718 104 q 488 -12 570 -12 l 324 -12 l 385 215 l 431 215 q 475 232 454 215 q 502 271 496 248 l 511 305 q 513 320 513 313 q 505 345 513 334 q 470 361 493 361 l 425 361 l 485 587 l 530 588 q 574 605 553 588 q 602 644 595 621 q 604 659 604 652 q 596 684 604 673 q 561 701 584 701 q 517 684 538 701 q 490 644 496 667 z "},"":{"ha":746,"x_min":111,"x_max":838,"o":"m 409 260 q 391 253 399 260 q 380 237 383 247 q 380 231 380 234 q 382 222 380 226 q 397 215 387 215 l 487 215 l 499 260 l 409 260 m 547 520 q 575 507 566 520 q 581 488 581 500 q 576 463 581 477 l 429 463 q 252 397 336 463 q 143 237 168 331 q 134 177 134 205 q 167 78 134 121 q 309 12 215 12 l 670 12 l 808 526 q 814 572 814 550 q 789 650 814 615 q 680 701 752 701 l 403 700 l 355 520 l 547 520 m 657 791 l 803 791 l 737 1006 l 439 1006 l 657 791 m 415 283 l 528 283 l 504 192 l 391 192 q 362 205 372 192 q 355 224 355 214 q 357 237 355 231 q 379 270 362 256 q 415 283 396 283 m 377 1029 l 757 1029 l 836 768 l 643 768 l 377 1029 m 558 486 q 555 491 557 488 q 540 497 549 497 l 325 497 l 386 723 l 686 724 q 810 666 768 724 q 838 578 838 627 q 831 526 838 553 l 686 -12 l 302 -12 q 146 62 199 -12 q 111 170 111 109 q 120 237 111 202 q 240 413 148 340 q 435 486 332 486 l 558 486 z "},"":{"ha":746,"x_min":111,"x_max":920,"o":"m 409 260 q 391 253 399 260 q 380 237 383 247 q 380 231 380 234 q 382 222 380 226 q 397 215 387 215 l 487 215 l 499 260 l 409 260 m 547 520 q 575 507 566 520 q 581 488 581 500 q 576 463 581 477 l 429 463 q 252 397 336 463 q 143 237 168 331 q 134 177 134 205 q 167 78 134 121 q 309 12 215 12 l 670 12 l 808 526 q 814 572 814 550 q 789 650 814 615 q 680 701 752 701 l 403 700 l 355 520 l 547 520 m 846 1006 l 547 1006 l 368 791 l 513 791 l 846 1006 m 415 283 l 528 283 l 504 192 l 391 192 q 362 205 372 192 q 355 224 355 214 q 357 237 355 231 q 379 270 362 256 q 415 283 396 283 m 515 768 l 322 768 l 540 1029 l 920 1029 l 515 768 m 558 486 q 555 491 557 488 q 540 497 549 497 l 325 497 l 386 723 l 686 724 q 810 666 768 724 q 838 578 838 627 q 831 526 838 553 l 686 -12 l 302 -12 q 146 62 199 -12 q 111 170 111 109 q 120 237 111 202 q 240 413 148 340 q 435 486 332 486 l 558 486 z "},"":{"ha":746,"x_min":111,"x_max":873,"o":"m 409 260 q 391 253 399 260 q 380 237 383 247 q 380 231 380 234 q 382 222 380 226 q 397 215 387 215 l 487 215 l 499 260 l 409 260 m 547 520 q 575 507 566 520 q 581 488 581 500 q 576 463 581 477 l 429 463 q 252 397 336 463 q 143 237 168 331 q 134 177 134 205 q 167 78 134 121 q 309 12 215 12 l 670 12 l 808 526 q 814 572 814 550 q 789 650 814 615 q 680 701 752 701 l 403 700 l 355 520 l 547 520 m 626 791 l 834 791 l 738 1006 l 547 1006 l 336 791 l 545 791 l 604 863 l 626 791 m 415 283 l 528 283 l 504 192 l 391 192 q 362 205 372 192 q 355 224 355 214 q 357 237 355 231 q 379 270 362 256 q 415 283 396 283 m 592 817 l 552 768 l 286 768 l 541 1029 l 756 1029 l 873 768 l 606 768 l 592 817 m 558 486 q 555 491 557 488 q 540 497 549 497 l 325 497 l 386 723 l 686 724 q 810 666 768 724 q 838 578 838 627 q 831 526 838 553 l 686 -12 l 302 -12 q 146 62 199 -12 q 111 170 111 109 q 120 237 111 202 q 240 413 148 340 q 435 486 332 486 l 558 486 z "},"":{"ha":746,"x_min":111,"x_max":955,"o":"m 409 260 q 391 253 399 260 q 380 237 383 247 q 380 231 380 234 q 382 222 380 226 q 397 215 387 215 l 487 215 l 499 260 l 409 260 m 547 520 q 575 507 566 520 q 581 488 581 500 q 576 463 581 477 l 429 463 q 252 397 336 463 q 143 237 168 331 q 134 177 134 205 q 167 78 134 121 q 309 12 215 12 l 670 12 l 808 526 q 814 572 814 550 q 789 650 814 615 q 680 701 752 701 l 403 700 l 355 520 l 547 520 m 317 852 l 480 793 l 546 844 q 687 791 655 791 q 755 822 716 791 l 910 945 l 747 1004 l 682 953 q 541 1006 572 1006 q 473 975 511 1006 l 317 852 m 415 283 l 528 283 l 504 192 l 391 192 q 362 205 372 192 q 355 224 355 214 q 357 237 355 231 q 379 270 362 256 q 415 283 396 283 m 461 991 q 547 1029 508 1029 q 684 980 583 1029 l 747 1030 l 955 954 l 766 806 q 681 768 720 768 q 544 817 645 768 l 480 767 l 273 843 l 461 991 m 558 486 q 555 491 557 488 q 540 497 549 497 l 325 497 l 386 723 l 686 724 q 810 666 768 724 q 838 578 838 627 q 831 526 838 553 l 686 -12 l 302 -12 q 146 62 199 -12 q 111 170 111 109 q 120 237 111 202 q 240 413 148 340 q 435 486 332 486 l 558 486 z "},"":{"ha":746,"x_min":111,"x_max":922,"o":"m 409 260 q 391 253 399 260 q 380 237 383 247 q 380 231 380 234 q 382 222 380 226 q 397 215 387 215 l 487 215 l 499 260 l 409 260 m 547 520 q 575 507 566 520 q 581 488 581 500 q 576 463 581 477 l 429 463 q 252 397 336 463 q 143 237 168 331 q 134 177 134 205 q 167 78 134 121 q 309 12 215 12 l 670 12 l 808 526 q 814 572 814 550 q 789 650 814 615 q 680 701 752 701 l 403 700 l 355 520 l 547 520 m 631 791 l 845 791 l 893 972 l 679 972 l 631 791 m 326 791 l 540 791 l 588 972 l 374 972 l 326 791 m 415 283 l 528 283 l 504 192 l 391 192 q 362 205 372 192 q 355 224 355 214 q 357 237 355 231 q 379 270 362 256 q 415 283 396 283 m 662 995 l 922 995 l 862 768 l 602 768 l 662 995 m 357 995 l 617 995 l 557 768 l 296 768 l 357 995 m 558 486 q 555 491 557 488 q 540 497 549 497 l 325 497 l 386 723 l 686 724 q 810 666 768 724 q 838 578 838 627 q 831 526 838 553 l 686 -12 l 302 -12 q 146 62 199 -12 q 111 170 111 109 q 120 237 111 202 q 240 413 148 340 q 435 486 332 486 l 558 486 z "},"":{"ha":746,"x_min":111,"x_max":838,"o":"m 409 260 q 391 253 399 260 q 380 237 383 247 q 380 231 380 234 q 382 222 380 226 q 397 215 387 215 l 487 215 l 499 260 l 409 260 m 547 520 q 575 507 566 520 q 581 488 581 500 q 576 463 581 477 l 429 463 q 252 397 336 463 q 143 237 168 331 q 134 177 134 205 q 167 78 134 121 q 309 12 215 12 l 670 12 l 808 526 q 814 572 814 550 q 789 650 814 615 q 680 701 752 701 l 403 701 l 355 520 l 547 520 m 585 791 q 682 823 637 791 q 738 899 726 854 q 741 923 741 911 q 722 974 741 951 q 642 1006 694 1006 q 546 974 590 1006 q 490 899 501 942 q 486 873 486 886 q 506 823 486 845 q 585 791 533 791 m 415 283 l 528 283 l 504 192 l 391 192 q 362 205 372 192 q 355 224 355 214 q 357 237 355 231 q 379 270 362 256 q 415 283 396 283 m 579 768 q 486 806 519 768 q 462 867 462 832 q 467 899 462 882 q 534 991 481 953 q 648 1029 588 1029 q 742 991 709 1029 q 765 930 765 964 q 761 899 765 915 q 693 806 746 844 q 579 768 640 768 m 558 486 q 555 491 557 488 q 540 497 549 497 l 325 497 l 386 724 l 686 724 q 810 666 768 724 q 838 578 838 627 q 831 526 838 553 l 686 -12 l 302 -12 q 146 62 199 -12 q 111 170 111 109 q 120 237 111 202 q 240 413 148 340 q 435 486 332 486 l 558 486 z "},"":{"ha":1119,"x_min":111,"x_max":1211,"o":"m 409 260 q 391 253 399 260 q 380 237 383 247 q 380 231 380 234 q 382 222 380 226 q 397 215 387 215 l 487 215 l 499 260 l 409 260 m 924 452 q 924 456 924 454 q 914 481 924 467 q 879 497 902 497 q 835 480 856 497 q 811 452 814 464 l 924 452 m 429 463 q 252 397 336 463 q 143 237 168 331 q 134 177 134 205 q 167 78 134 121 q 309 12 215 12 l 975 12 l 1023 192 l 764 192 q 735 205 745 192 q 730 224 730 212 q 733 249 730 235 l 1106 249 l 1181 526 q 1187 572 1187 550 q 1162 650 1187 615 q 1053 701 1125 701 l 815 701 q 744 688 781 701 q 680 701 714 701 l 403 700 l 355 520 l 547 520 q 575 507 566 520 q 581 488 581 500 q 576 463 581 477 l 429 463 m 415 283 l 528 283 l 504 192 l 391 192 q 362 205 372 192 q 355 224 355 214 q 357 237 355 231 q 379 270 362 256 q 415 283 396 283 m 782 429 q 823 497 793 473 q 886 520 853 520 q 935 497 918 520 q 945 462 945 483 q 941 429 945 447 l 782 429 m 752 226 q 756 222 753 224 q 770 215 760 215 l 1053 215 l 991 -12 l 302 -12 q 146 62 199 -12 q 111 170 111 109 q 120 237 111 202 q 240 413 148 340 q 435 486 332 486 l 558 486 q 555 491 557 488 q 540 497 549 497 l 325 497 l 386 723 l 686 724 q 750 712 724 724 q 821 724 783 724 l 1059 724 q 1183 666 1141 724 q 1211 578 1211 627 q 1204 526 1211 553 l 1123 226 l 752 226 z "},"":{"ha":678,"x_min":49,"x_max":816,"o":"m 288 12 q 183 -79 263 -79 l 126 -79 l 78 -260 l 237 -260 q 480 -68 429 -260 l 502 12 l 602 12 l 650 192 l 425 192 q 375 216 392 192 q 363 250 363 231 q 366 271 363 260 l 412 441 q 450 497 420 473 q 513 520 480 520 l 739 520 l 787 701 l 442 701 q 304 649 370 701 q 220 526 239 598 l 130 186 q 123 139 123 161 q 148 63 123 96 q 258 12 185 12 l 288 12 m 258 -12 l 251 -12 q 127 47 169 -12 q 99 133 99 84 q 106 186 99 158 l 197 526 q 293 666 219 608 q 448 724 366 724 l 816 724 l 755 497 l 506 497 q 462 480 483 497 q 435 441 441 464 l 389 271 q 387 256 387 264 q 395 232 387 243 q 431 215 408 215 l 680 215 l 618 -12 l 518 -12 l 503 -68 q 231 -283 446 -283 l 49 -283 l 109 -56 l 189 -56 q 258 -12 246 -56 z "},"":{"ha":746,"x_min":99,"x_max":838,"o":"m 551 452 q 551 456 551 454 q 541 481 551 467 q 506 497 529 497 q 462 480 483 497 q 438 452 441 464 l 551 452 m 391 192 q 362 205 372 192 q 357 224 357 212 q 360 249 357 235 l 733 249 l 808 526 q 814 572 814 550 q 789 650 814 615 q 680 701 752 701 l 442 701 q 304 649 370 701 q 220 526 239 598 l 130 186 q 123 139 123 161 q 148 63 123 96 q 258 12 185 12 l 602 12 l 650 192 l 391 192 m 657 791 l 803 791 l 737 1006 l 439 1006 l 657 791 m 409 429 q 450 497 420 473 q 513 520 480 520 q 562 497 545 520 q 572 462 572 483 q 568 429 572 447 l 409 429 m 377 1029 l 757 1029 l 836 768 l 643 768 l 377 1029 m 379 226 q 383 222 380 224 q 397 215 387 215 l 680 215 l 618 -12 l 251 -12 q 127 47 169 -12 q 99 133 99 84 q 106 186 99 158 l 197 526 q 293 666 219 608 q 448 724 366 724 l 686 724 q 810 666 768 724 q 838 578 838 627 q 831 526 838 553 l 750 226 l 379 226 z "},"":{"ha":746,"x_min":99,"x_max":920,"o":"m 551 452 q 551 456 551 454 q 541 481 551 467 q 506 497 529 497 q 462 480 483 497 q 438 452 441 464 l 551 452 m 391 192 q 362 205 372 192 q 357 224 357 212 q 360 249 357 235 l 733 249 l 808 526 q 814 572 814 550 q 789 650 814 615 q 680 701 752 701 l 442 701 q 304 649 370 701 q 220 526 239 598 l 130 186 q 123 139 123 161 q 148 63 123 96 q 258 12 185 12 l 602 12 l 650 192 l 391 192 m 846 1006 l 547 1006 l 368 791 l 513 791 l 846 1006 m 409 429 q 450 497 420 473 q 513 520 480 520 q 562 497 545 520 q 572 462 572 483 q 568 429 572 447 l 409 429 m 515 768 l 322 768 l 540 1029 l 920 1029 l 515 768 m 379 226 q 383 222 380 224 q 397 215 387 215 l 680 215 l 618 -12 l 251 -12 q 127 47 169 -12 q 99 133 99 84 q 106 186 99 158 l 197 526 q 293 666 219 608 q 448 724 366 724 l 686 724 q 810 666 768 724 q 838 578 838 627 q 831 526 838 553 l 750 226 l 379 226 z "},"":{"ha":746,"x_min":99,"x_max":873,"o":"m 551 452 q 551 456 551 454 q 541 481 551 467 q 506 497 529 497 q 462 480 483 497 q 438 452 441 464 l 551 452 m 391 192 q 362 205 372 192 q 357 224 357 212 q 360 249 357 235 l 733 249 l 808 526 q 814 572 814 550 q 789 650 814 615 q 680 701 752 701 l 442 701 q 304 649 370 701 q 220 526 239 598 l 130 186 q 123 139 123 161 q 148 63 123 96 q 258 12 185 12 l 602 12 l 650 192 l 391 192 m 626 791 l 834 791 l 738 1006 l 547 1006 l 336 791 l 545 791 l 604 863 l 626 791 m 409 429 q 450 497 420 473 q 513 520 480 520 q 562 497 545 520 q 572 462 572 483 q 568 429 572 447 l 409 429 m 592 817 l 552 768 l 286 768 l 541 1029 l 756 1029 l 873 768 l 606 768 l 592 817 m 379 226 q 383 222 380 224 q 397 215 387 215 l 680 215 l 618 -12 l 251 -12 q 127 47 169 -12 q 99 133 99 84 q 106 186 99 158 l 197 526 q 293 666 219 608 q 448 724 366 724 l 686 724 q 810 666 768 724 q 838 578 838 627 q 831 526 838 553 l 750 226 l 379 226 z "},"":{"ha":746,"x_min":99,"x_max":922,"o":"m 551 452 q 551 456 551 454 q 541 481 551 467 q 506 497 529 497 q 462 480 483 497 q 438 452 441 464 l 551 452 m 391 192 q 362 205 372 192 q 357 224 357 212 q 360 249 357 235 l 733 249 l 808 526 q 814 572 814 550 q 789 650 814 615 q 680 701 752 701 l 442 701 q 304 649 370 701 q 220 526 239 598 l 130 186 q 123 139 123 161 q 148 63 123 96 q 258 12 185 12 l 602 12 l 650 192 l 391 192 m 631 791 l 845 791 l 893 972 l 679 972 l 631 791 m 326 791 l 540 791 l 588 972 l 374 972 l 326 791 m 409 429 q 450 497 420 473 q 513 520 480 520 q 562 497 545 520 q 572 462 572 483 q 568 429 572 447 l 409 429 m 662 995 l 922 995 l 862 768 l 602 768 l 662 995 m 357 995 l 617 995 l 557 768 l 296 768 l 357 995 m 379 226 q 383 222 380 224 q 397 215 387 215 l 680 215 l 618 -12 l 251 -12 q 127 47 169 -12 q 99 133 99 84 q 106 186 99 158 l 197 526 q 293 666 219 608 q 448 724 366 724 l 686 724 q 810 666 768 724 q 838 578 838 627 q 831 526 838 553 l 750 226 l 379 226 z "},"":{"ha":373,"x_min":53,"x_max":650,"o":"m 267 701 l 83 12 l 297 12 l 481 701 l 267 701 m 471 791 l 616 791 l 551 1006 l 252 1006 l 471 791 m 511 724 l 313 -12 l 53 -12 l 250 724 l 511 724 m 191 1029 l 570 1029 l 650 768 l 456 768 l 191 1029 z "},"":{"ha":373,"x_min":53,"x_max":733,"o":"m 267 701 l 83 12 l 297 12 l 481 701 l 267 701 m 659 1006 l 361 1006 l 181 791 l 327 791 l 659 1006 m 511 724 l 313 -12 l 53 -12 l 250 724 l 511 724 m 329 768 l 136 768 l 353 1029 l 733 1029 l 329 768 z "},"":{"ha":373,"x_min":53,"x_max":686,"o":"m 267 701 l 83 12 l 297 12 l 481 701 l 267 701 m 439 791 l 648 791 l 551 1006 l 360 1006 l 150 791 l 358 791 l 418 863 l 439 791 m 511 724 l 313 -12 l 53 -12 l 250 724 l 511 724 m 406 817 l 366 768 l 99 768 l 354 1029 l 570 1029 l 686 768 l 420 768 l 406 817 z "},"":{"ha":373,"x_min":53,"x_max":745,"o":"m 267 701 l 83 12 l 297 12 l 481 701 l 267 701 m 453 825 l 667 825 l 715 1006 l 501 1006 l 453 825 m 148 825 l 362 825 l 410 1006 l 196 1006 l 148 825 m 511 724 l 313 -12 l 53 -12 l 250 724 l 511 724 m 484 1029 l 745 1029 l 684 802 l 424 802 l 484 1029 m 179 1029 l 439 1029 l 379 802 l 119 802 l 179 1029 z "},"":{"ha":746,"x_min":99,"x_max":865,"o":"m 477 429 q 444 413 465 429 q 416 373 422 396 l 389 271 q 387 256 387 264 q 395 232 387 243 q 419 215 408 215 l 477 429 m 794 729 q 801 777 801 754 q 777 853 801 819 q 666 904 739 904 l 457 904 l 409 724 l 499 724 q 549 701 532 724 q 559 665 559 686 q 554 633 559 650 l 424 633 q 287 582 351 633 q 202 458 222 530 l 130 186 q 123 139 123 161 q 148 63 123 96 q 258 12 185 12 l 602 12 l 720 452 l 788 452 l 836 633 l 768 633 l 794 729 m 436 192 q 375 216 392 192 q 363 250 363 231 q 366 271 363 260 l 393 373 q 432 429 402 406 q 506 452 462 452 l 436 192 m 798 656 l 865 656 l 805 429 l 737 429 l 618 -12 l 251 -12 q 127 47 169 -12 q 99 133 99 84 q 106 186 99 158 l 179 458 q 274 598 201 540 q 430 656 348 656 l 537 656 q 538 661 538 659 q 528 684 538 671 q 493 701 516 701 l 380 701 l 440 927 l 672 927 q 797 869 754 927 q 825 782 825 831 q 817 729 825 757 l 798 656 z "},"":{"ha":746,"x_min":53,"x_max":955,"o":"m 433 520 l 513 520 q 562 497 545 520 q 573 462 573 481 q 570 441 573 452 l 456 12 l 670 12 l 808 526 q 814 572 814 550 q 789 650 814 615 q 680 701 752 701 l 267 701 l 83 12 l 297 12 l 433 520 m 317 852 l 480 793 l 546 844 q 687 791 655 791 q 755 822 716 791 l 910 945 l 747 1004 l 682 953 q 541 1006 572 1006 q 473 975 511 1006 l 317 852 m 313 -12 l 53 -12 l 250 724 l 686 724 q 810 666 768 724 q 838 578 838 627 q 831 526 838 553 l 686 -12 l 426 -12 l 547 441 q 549 456 549 448 q 541 481 549 469 q 506 497 529 497 l 450 497 l 313 -12 m 461 991 q 547 1029 508 1029 q 684 980 583 1029 l 747 1030 l 955 954 l 766 806 q 681 768 720 768 q 544 817 645 768 l 480 767 l 273 843 l 461 991 z "},"":{"ha":746,"x_min":99,"x_max":838,"o":"m 495 12 q 632 63 568 12 q 717 186 697 114 l 808 526 q 814 572 814 550 q 789 650 814 615 q 680 701 752 701 l 442 701 q 304 649 370 701 q 220 526 239 598 l 130 186 q 123 139 123 161 q 148 63 123 96 q 258 12 185 12 l 495 12 m 389 271 q 387 256 387 264 q 395 232 387 243 q 431 215 408 215 q 475 232 454 215 q 502 271 496 248 l 547 441 q 549 456 549 448 q 541 481 549 469 q 506 497 529 497 q 462 480 483 497 q 435 441 441 464 l 389 271 m 657 791 l 803 791 l 737 1006 l 439 1006 l 657 791 m 251 -12 q 127 47 169 -12 q 99 133 99 84 q 106 186 99 158 l 197 526 q 293 666 219 608 q 448 724 366 724 l 686 724 q 810 666 768 724 q 838 578 838 627 q 831 526 838 553 l 740 186 q 644 46 718 104 q 488 -12 570 -12 l 251 -12 m 412 441 q 450 497 420 473 q 513 520 480 520 q 562 497 545 520 q 573 462 573 481 q 570 441 573 452 l 525 271 q 487 215 516 239 q 425 192 457 192 q 375 216 392 192 q 363 250 363 231 q 366 271 363 260 l 412 441 m 377 1029 l 757 1029 l 836 768 l 643 768 l 377 1029 z "},"":{"ha":746,"x_min":99,"x_max":920,"o":"m 495 12 q 632 63 568 12 q 717 186 697 114 l 808 526 q 814 572 814 550 q 789 650 814 615 q 680 701 752 701 l 442 701 q 304 649 370 701 q 220 526 239 598 l 130 186 q 123 139 123 161 q 148 63 123 96 q 258 12 185 12 l 495 12 m 389 271 q 387 256 387 264 q 395 232 387 243 q 431 215 408 215 q 475 232 454 215 q 502 271 496 248 l 547 441 q 549 456 549 448 q 541 481 549 469 q 506 497 529 497 q 462 480 483 497 q 435 441 441 464 l 389 271 m 846 1006 l 547 1006 l 368 791 l 513 791 l 846 1006 m 251 -12 q 127 47 169 -12 q 99 133 99 84 q 106 186 99 158 l 197 526 q 293 666 219 608 q 448 724 366 724 l 686 724 q 810 666 768 724 q 838 578 838 627 q 831 526 838 553 l 740 186 q 644 46 718 104 q 488 -12 570 -12 l 251 -12 m 412 441 q 450 497 420 473 q 513 520 480 520 q 562 497 545 520 q 573 462 573 481 q 570 441 573 452 l 525 271 q 487 215 516 239 q 425 192 457 192 q 375 216 392 192 q 363 250 363 231 q 366 271 363 260 l 412 441 m 515 768 l 322 768 l 540 1029 l 920 1029 l 515 768 z "},"":{"ha":746,"x_min":99,"x_max":873,"o":"m 495 12 q 632 63 568 12 q 717 186 697 114 l 808 526 q 814 572 814 550 q 789 650 814 615 q 680 701 752 701 l 442 701 q 304 649 370 701 q 220 526 239 598 l 130 186 q 123 139 123 161 q 148 63 123 96 q 258 12 185 12 l 495 12 m 389 271 q 387 256 387 264 q 395 232 387 243 q 431 215 408 215 q 475 232 454 215 q 502 271 496 248 l 547 441 q 549 456 549 448 q 541 481 549 469 q 506 497 529 497 q 462 480 483 497 q 435 441 441 464 l 389 271 m 626 791 l 834 791 l 738 1006 l 547 1006 l 336 791 l 545 791 l 604 863 l 626 791 m 251 -12 q 127 47 169 -12 q 99 133 99 84 q 106 186 99 158 l 197 526 q 293 666 219 608 q 448 724 366 724 l 686 724 q 810 666 768 724 q 838 578 838 627 q 831 526 838 553 l 740 186 q 644 46 718 104 q 488 -12 570 -12 l 251 -12 m 412 441 q 450 497 420 473 q 513 520 480 520 q 562 497 545 520 q 573 462 573 481 q 570 441 573 452 l 525 271 q 487 215 516 239 q 425 192 457 192 q 375 216 392 192 q 363 250 363 231 q 366 271 363 260 l 412 441 m 592 817 l 552 768 l 286 768 l 541 1029 l 756 1029 l 873 768 l 606 768 l 592 817 z "},"":{"ha":746,"x_min":99,"x_max":955,"o":"m 495 12 q 632 63 568 12 q 717 186 697 114 l 808 526 q 814 572 814 550 q 789 650 814 615 q 680 701 752 701 l 442 701 q 304 649 370 701 q 220 526 239 598 l 130 186 q 123 139 123 161 q 148 63 123 96 q 258 12 185 12 l 495 12 m 389 271 q 387 256 387 264 q 395 232 387 243 q 431 215 408 215 q 475 232 454 215 q 502 271 496 248 l 547 441 q 549 456 549 448 q 541 481 549 469 q 506 497 529 497 q 462 480 483 497 q 435 441 441 464 l 389 271 m 317 852 l 480 793 l 546 844 q 687 791 655 791 q 755 822 716 791 l 910 945 l 747 1004 l 682 953 q 541 1006 572 1006 q 473 975 511 1006 l 317 852 m 251 -12 q 127 47 169 -12 q 99 133 99 84 q 106 186 99 158 l 197 526 q 293 666 219 608 q 448 724 366 724 l 686 724 q 810 666 768 724 q 838 578 838 627 q 831 526 838 553 l 740 186 q 644 46 718 104 q 488 -12 570 -12 l 251 -12 m 412 441 q 450 497 420 473 q 513 520 480 520 q 562 497 545 520 q 573 462 573 481 q 570 441 573 452 l 525 271 q 487 215 516 239 q 425 192 457 192 q 375 216 392 192 q 363 250 363 231 q 366 271 363 260 l 412 441 m 461 991 q 547 1029 508 1029 q 684 980 583 1029 l 747 1030 l 955 954 l 766 806 q 681 768 720 768 q 544 817 645 768 l 480 767 l 273 843 l 461 991 z "},"":{"ha":746,"x_min":99,"x_max":922,"o":"m 495 12 q 632 63 568 12 q 717 186 697 114 l 808 526 q 814 572 814 550 q 789 650 814 615 q 680 701 752 701 l 442 701 q 304 649 370 701 q 220 526 239 598 l 130 186 q 123 139 123 161 q 148 63 123 96 q 258 12 185 12 l 495 12 m 389 271 q 387 256 387 264 q 395 232 387 243 q 431 215 408 215 q 475 232 454 215 q 502 271 496 248 l 547 441 q 549 456 549 448 q 541 481 549 469 q 506 497 529 497 q 462 480 483 497 q 435 441 441 464 l 389 271 m 631 791 l 845 791 l 893 972 l 679 972 l 631 791 m 326 791 l 540 791 l 588 972 l 374 972 l 326 791 m 251 -12 q 127 47 169 -12 q 99 133 99 84 q 106 186 99 158 l 197 526 q 293 666 219 608 q 448 724 366 724 l 686 724 q 810 666 768 724 q 838 578 838 627 q 831 526 838 553 l 740 186 q 644 46 718 104 q 488 -12 570 -12 l 251 -12 m 412 441 q 450 497 420 473 q 513 520 480 520 q 562 497 545 520 q 573 462 573 481 q 570 441 573 452 l 525 271 q 487 215 516 239 q 425 192 457 192 q 375 216 392 192 q 363 250 363 231 q 366 271 363 260 l 412 441 m 662 995 l 922 995 l 862 768 l 602 768 l 662 995 m 357 995 l 617 995 l 557 768 l 296 768 l 357 995 z "},"":{"ha":644,"x_min":76,"x_max":703,"o":"m 625 351 l 673 531 l 154 531 l 106 351 l 625 351 m 185 79 l 399 79 l 448 260 l 234 260 l 185 79 m 331 622 l 545 622 l 593 802 l 379 802 l 331 622 m 76 328 l 137 554 l 703 554 l 642 328 l 76 328 m 217 283 l 477 283 l 416 56 l 156 56 l 217 283 m 362 825 l 623 825 l 562 599 l 302 599 l 362 825 z "},"":{"ha":746,"x_min":99,"x_max":838,"o":"m 808 526 q 814 572 814 550 q 789 650 814 615 q 680 701 752 701 l 442 701 q 304 649 370 701 q 220 526 239 598 l 130 186 q 123 139 123 161 q 148 63 123 96 q 258 12 185 12 l 495 12 q 632 63 568 12 q 717 186 697 114 l 808 526 m 532 491 q 506 497 528 497 q 462 480 483 497 q 435 441 441 464 l 430 422 l 532 491 m 404 221 q 431 215 409 215 q 475 232 454 215 q 502 271 496 248 l 507 290 l 404 221 m 740 186 q 644 46 718 104 q 488 -12 570 -12 l 251 -12 q 127 47 169 -12 q 99 133 99 84 q 106 186 99 158 l 197 526 q 293 666 219 608 q 448 724 366 724 l 686 724 q 810 666 768 724 q 838 578 838 627 q 831 526 838 553 l 740 186 m 393 373 l 412 441 q 450 497 420 473 q 513 520 480 520 q 567 490 544 520 l 393 373 m 543 339 l 525 271 q 487 215 516 239 q 425 192 457 192 q 370 222 393 192 l 543 339 z "},"":{"ha":746,"x_min":99,"x_max":884,"o":"m 504 192 l 425 192 q 375 216 392 192 q 363 250 363 231 q 366 271 363 260 l 481 701 l 267 701 l 130 186 q 123 139 123 161 q 148 63 123 96 q 258 12 185 12 l 670 12 l 854 701 l 640 701 l 504 192 m 657 791 l 803 791 l 737 1006 l 439 1006 l 657 791 m 623 724 l 884 724 l 686 -12 l 251 -12 q 127 47 169 -12 q 99 133 99 84 q 106 186 99 158 l 250 724 l 511 724 l 389 271 q 387 256 387 264 q 395 232 387 243 q 431 215 408 215 l 487 215 l 623 724 m 377 1029 l 757 1029 l 836 768 l 643 768 l 377 1029 z "},"":{"ha":746,"x_min":99,"x_max":920,"o":"m 504 192 l 425 192 q 375 216 392 192 q 363 250 363 231 q 366 271 363 260 l 481 701 l 267 701 l 130 186 q 123 139 123 161 q 148 63 123 96 q 258 12 185 12 l 670 12 l 854 701 l 640 701 l 504 192 m 846 1006 l 547 1006 l 368 791 l 513 791 l 846 1006 m 623 724 l 884 724 l 686 -12 l 251 -12 q 127 47 169 -12 q 99 133 99 84 q 106 186 99 158 l 250 724 l 511 724 l 389 271 q 387 256 387 264 q 395 232 387 243 q 431 215 408 215 l 487 215 l 623 724 m 515 768 l 322 768 l 540 1029 l 920 1029 l 515 768 z "},"":{"ha":746,"x_min":99,"x_max":884,"o":"m 504 192 l 425 192 q 375 216 392 192 q 363 250 363 231 q 366 271 363 260 l 481 701 l 267 701 l 130 186 q 123 139 123 161 q 148 63 123 96 q 258 12 185 12 l 670 12 l 854 701 l 640 701 l 504 192 m 626 791 l 834 791 l 738 1006 l 547 1006 l 336 791 l 545 791 l 604 863 l 626 791 m 623 724 l 884 724 l 686 -12 l 251 -12 q 127 47 169 -12 q 99 133 99 84 q 106 186 99 158 l 250 724 l 511 724 l 389 271 q 387 256 387 264 q 395 232 387 243 q 431 215 408 215 l 487 215 l 623 724 m 592 817 l 552 768 l 286 768 l 541 1029 l 756 1029 l 873 768 l 606 768 l 592 817 z "},"":{"ha":746,"x_min":99,"x_max":922,"o":"m 504 192 l 425 192 q 375 216 392 192 q 363 250 363 231 q 366 271 363 260 l 481 701 l 267 701 l 130 186 q 123 139 123 161 q 148 63 123 96 q 258 12 185 12 l 670 12 l 854 701 l 640 701 l 504 192 m 631 791 l 845 791 l 893 972 l 679 972 l 631 791 m 326 791 l 540 791 l 588 972 l 374 972 l 326 791 m 623 724 l 884 724 l 686 -12 l 251 -12 q 127 47 169 -12 q 99 133 99 84 q 106 186 99 158 l 250 724 l 511 724 l 389 271 q 387 256 387 264 q 395 232 387 243 q 431 215 408 215 l 487 215 l 623 724 m 662 995 l 922 995 l 862 768 l 602 768 l 662 995 m 357 995 l 617 995 l 557 768 l 296 768 l 357 995 z "},"":{"ha":746,"x_min":99,"x_max":920,"o":"m 456 12 q 414 -56 444 -33 q 352 -79 385 -79 l 194 -79 l 145 -260 l 422 -260 q 559 -209 494 -260 q 644 -85 625 -157 l 854 701 l 640 701 l 504 192 l 425 192 q 375 216 392 192 q 363 250 363 231 q 366 271 363 260 l 481 701 l 267 701 l 130 186 q 123 139 123 161 q 148 63 123 96 q 258 12 185 12 l 456 12 m 846 1006 l 547 1006 l 368 791 l 513 791 l 846 1006 m 426 -12 l 251 -12 q 127 47 169 -12 q 99 133 99 84 q 106 186 99 158 l 250 724 l 511 724 l 389 271 q 387 256 387 264 q 395 232 387 243 q 431 215 408 215 l 487 215 l 623 724 l 884 724 l 667 -85 q 571 -225 645 -167 q 416 -283 498 -283 l 116 -283 l 177 -56 l 358 -56 q 402 -40 381 -56 q 426 -12 423 -23 m 515 768 l 322 768 l 540 1029 l 920 1029 l 515 768 z "},"":{"ha":746,"x_min":-20,"x_max":838,"o":"m 389 271 q 387 256 387 264 q 395 232 387 243 q 431 215 408 215 q 475 232 454 215 q 502 271 496 248 l 547 441 q 549 456 549 448 q 541 481 549 469 q 506 497 529 497 l 450 497 l 389 271 m 536 904 l 321 904 l 9 -260 l 224 -260 l 297 12 l 495 12 q 632 63 568 12 q 717 186 697 114 l 808 526 q 814 572 814 550 q 789 650 814 615 q 680 701 752 701 l 481 701 l 536 904 m 433 520 l 513 520 q 562 497 545 520 q 573 462 573 481 q 570 441 573 452 l 525 271 q 487 215 516 239 q 425 192 457 192 q 375 216 392 192 q 363 250 363 231 q 366 271 363 260 l 433 520 m 511 724 l 686 724 q 810 666 768 724 q 838 578 838 627 q 831 526 838 553 l 740 186 q 644 46 718 104 q 488 -12 570 -12 l 313 -12 l 241 -283 l -20 -283 l 304 927 l 565 927 l 511 724 z "},"":{"ha":746,"x_min":99,"x_max":922,"o":"m 456 12 q 414 -56 444 -33 q 352 -79 385 -79 l 194 -79 l 145 -260 l 422 -260 q 559 -209 494 -260 q 644 -85 625 -157 l 854 701 l 640 701 l 504 192 l 425 192 q 375 216 392 192 q 363 250 363 231 q 366 271 363 260 l 481 701 l 267 701 l 130 186 q 123 139 123 161 q 148 63 123 96 q 258 12 185 12 l 456 12 m 631 791 l 845 791 l 893 972 l 679 972 l 631 791 m 326 791 l 540 791 l 588 972 l 374 972 l 326 791 m 426 -12 l 251 -12 q 127 47 169 -12 q 99 133 99 84 q 106 186 99 158 l 250 724 l 511 724 l 389 271 q 387 256 387 264 q 395 232 387 243 q 431 215 408 215 l 487 215 l 623 724 l 884 724 l 667 -85 q 571 -225 645 -167 q 416 -283 498 -283 l 116 -283 l 177 -56 l 358 -56 q 402 -40 381 -56 q 426 -12 423 -23 m 662 995 l 922 995 l 862 768 l 602 768 l 662 995 m 357 995 l 617 995 l 557 768 l 296 768 l 357 995 z "},"":{"ha":373,"x_min":53,"x_max":511,"o":"m 267 701 l 83 12 l 297 12 l 481 701 l 267 701 m 511 724 l 313 -12 l 53 -12 l 250 724 l 511 724 z "},"":{"ha":678,"x_min":306,"x_max":893,"o":"m 646 995 l 854 995 l 759 1209 l 568 1209 l 357 995 l 565 995 l 625 1066 l 646 995 m 612 1020 l 572 972 l 306 972 l 562 1232 l 777 1232 l 893 972 l 627 972 l 612 1020 z "},"":{"ha":678,"x_min":376,"x_max":963,"o":"m 644 1139 l 623 1209 l 414 1209 l 510 995 l 701 995 l 912 1209 l 704 1209 l 644 1139 m 696 1232 l 963 1232 l 707 972 l 492 972 l 376 1232 l 642 1232 l 656 1185 l 696 1232 z "},"":{"ha":452,"x_min":203,"x_max":604,"o":"m 559 822 l 575 884 l 248 884 l 232 822 l 559 822 m 203 799 l 231 907 l 604 907 l 576 799 l 203 799 z "},"":{"ha":498,"x_min":232,"x_max":658,"o":"m 256 903 q 254 880 254 891 q 284 787 254 824 q 398 743 320 743 q 535 787 477 743 q 625 903 594 830 l 613 903 q 541 832 590 857 q 415 808 492 808 q 302 833 338 808 q 268 899 268 857 l 268 903 l 256 903 m 235 926 l 292 926 l 292 922 q 321 852 292 872 q 421 831 351 831 q 533 851 492 831 q 600 926 574 872 l 658 926 q 547 770 613 819 q 392 720 480 720 q 264 770 304 720 q 232 882 232 808 q 235 926 232 903 z "},"":{"ha":339,"x_min":258,"x_max":579,"o":"m 287 1029 l 501 1029 l 550 1209 l 336 1209 l 287 1029 m 319 1232 l 579 1232 l 518 1006 l 258 1006 l 319 1232 z "},"":{"ha":373,"x_min":279,"x_max":583,"o":"m 460 1209 q 363 1178 408 1209 q 307 1102 319 1146 q 303 1078 303 1089 q 323 1027 303 1049 q 402 995 350 995 q 499 1027 454 995 q 555 1102 543 1059 q 559 1128 559 1116 q 540 1178 559 1156 q 460 1209 512 1209 m 466 1232 q 559 1195 526 1232 q 583 1135 583 1168 q 578 1102 583 1119 q 510 1010 564 1048 q 396 972 456 972 q 302 1010 336 972 q 279 1071 279 1036 q 283 1102 279 1086 q 352 1195 298 1157 q 466 1232 406 1232 z "},"":{"ha":509,"x_min":24,"x_max":437,"o":"m 308 56 l 94 56 l 60 -68 q 49 -140 49 -109 q 200 -260 49 -260 l 359 -260 l 408 -79 l 351 -79 q 288 -30 288 -79 q 292 0 288 -16 l 308 56 m 315 0 q 312 -21 312 -12 q 357 -56 312 -56 l 437 -56 l 376 -283 l 194 -283 q 24 -149 24 -283 q 37 -68 24 -113 l 77 79 l 337 79 l 315 0 z "},"":{"ha":746,"x_min":327,"x_max":1009,"o":"m 372 1056 l 535 996 l 600 1048 q 741 995 709 995 q 809 1025 770 995 l 965 1148 l 802 1208 l 736 1156 q 595 1209 627 1209 q 528 1179 566 1209 l 372 1056 m 515 1195 q 602 1232 563 1232 q 739 1183 637 1232 l 802 1234 l 1009 1158 l 821 1009 q 735 972 774 972 q 598 1021 699 972 l 534 970 l 327 1046 l 515 1195 z "},"":{"ha":501,"x_min":174,"x_max":661,"o":"m 234 743 l 407 884 q 432 908 422 897 q 443 927 441 919 q 444 936 444 932 q 439 951 444 944 q 418 961 432 961 q 390 950 405 961 q 352 911 374 939 l 218 743 l 234 743 m 427 743 l 600 884 q 625 908 616 897 q 636 927 634 919 q 637 936 637 932 q 633 951 637 944 q 611 961 625 961 q 583 950 598 961 q 545 911 568 939 l 412 743 l 427 743 m 174 720 l 334 922 q 382 969 361 954 q 424 984 403 984 q 460 967 448 984 q 468 942 468 956 q 466 927 468 935 q 450 899 463 913 q 419 867 438 884 l 237 720 l 174 720 m 368 720 l 528 922 q 575 969 554 954 q 617 984 596 984 q 653 967 641 984 q 661 942 661 956 q 659 927 661 935 q 644 899 656 913 q 612 867 631 884 l 431 720 l 368 720 z "},"":{"ha":678,"x_min":153,"x_max":779,"o":"m 702 385 l 750 565 l 231 565 l 182 385 l 702 385 m 153 361 l 214 588 l 779 588 l 719 361 l 153 361 z "},"":{"ha":746,"x_min":153,"x_max":847,"o":"m 770 385 l 818 565 l 231 565 l 182 385 l 770 385 m 153 361 l 214 588 l 847 588 l 787 361 l 153 361 z "},"":{"ha":339,"x_min":178,"x_max":497,"o":"m 203 715 l 233 588 l 319 588 l 417 715 l 468 904 l 254 904 l 203 715 m 237 927 l 497 927 l 439 709 l 328 565 l 212 565 l 178 709 l 237 927 z "},"":{"ha":339,"x_min":178,"x_max":497,"o":"m 203 715 l 233 588 l 319 588 l 417 715 l 468 904 l 254 904 l 203 715 m 237 927 l 497 927 l 439 709 l 328 565 l 212 565 l 178 709 l 237 927 z "},"":{"ha":339,"x_min":-12,"x_max":307,"o":"m 12 3 l 42 -124 l 129 -124 l 227 3 l 277 192 l 63 192 l 12 3 m 46 215 l 307 215 l 248 -3 l 138 -147 l 21 -147 l -12 -3 l 46 215 z "},"":{"ha":678,"x_min":178,"x_max":836,"o":"m 203 715 l 233 588 l 319 588 l 417 715 l 468 904 l 254 904 l 203 715 m 542 715 l 572 588 l 659 588 l 756 715 l 807 904 l 593 904 l 542 715 m 237 927 l 497 927 l 439 709 l 328 565 l 212 565 l 178 709 l 237 927 m 576 927 l 836 927 l 778 709 l 667 565 l 551 565 l 517 709 l 576 927 z "},"":{"ha":678,"x_min":178,"x_max":836,"o":"m 203 715 l 233 588 l 319 588 l 417 715 l 468 904 l 254 904 l 203 715 m 542 715 l 572 588 l 659 588 l 756 715 l 807 904 l 593 904 l 542 715 m 237 927 l 497 927 l 439 709 l 328 565 l 212 565 l 178 709 l 237 927 m 576 927 l 836 927 l 778 709 l 667 565 l 551 565 l 517 709 l 576 927 z "},"":{"ha":678,"x_min":-12,"x_max":646,"o":"m 12 3 l 42 -124 l 129 -124 l 227 3 l 277 192 l 63 192 l 12 3 m 351 3 l 381 -124 l 468 -124 l 566 3 l 616 192 l 402 192 l 351 3 m 46 215 l 307 215 l 248 -3 l 138 -147 l 21 -147 l -12 -3 l 46 215 m 385 215 l 646 215 l 587 -3 l 477 -147 l 360 -147 l 327 -3 l 385 215 z "},"":{"ha":694,"x_min":165,"x_max":791,"o":"m 477 680 q 348 720 399 688 q 270 757 289 757 q 224 735 246 757 q 193 679 203 713 q 189 648 189 662 q 195 622 189 633 q 234 601 206 601 q 326 638 250 601 q 475 678 393 670 q 346 474 432 541 q 249 -172 336 167 l 252 -172 q 499 474 347 167 q 469 584 469 515 q 480 678 469 626 q 608 637 557 669 q 685 601 666 601 q 731 623 709 601 q 762 679 753 644 q 767 709 767 696 q 761 736 767 725 q 721 757 749 757 q 629 720 705 757 q 480 680 563 687 q 557 820 509 760 q 617 907 612 888 q 618 919 618 913 q 606 947 618 935 q 553 963 588 963 q 492 946 517 963 q 459 901 467 929 q 458 895 458 899 q 475 819 458 873 q 484 751 484 789 q 477 680 484 719 m 458 706 q 461 742 461 724 q 451 808 461 774 q 435 890 435 865 q 436 901 435 897 q 481 963 446 940 q 560 986 515 986 q 627 965 603 986 q 643 927 643 949 q 640 907 643 918 q 575 809 633 883 q 513 706 530 753 q 623 740 563 710 q 727 780 705 780 q 782 752 766 780 q 791 715 791 736 q 785 679 791 699 q 745 607 774 636 q 679 578 715 578 q 592 616 654 578 q 498 652 544 646 q 491 593 491 622 q 527 481 491 530 q 269 -195 369 164 l 220 -195 q 322 481 312 164 q 444 652 412 551 q 332 618 393 647 q 228 578 250 578 q 174 606 189 578 q 165 644 165 622 q 170 679 165 660 q 211 751 182 722 q 276 780 240 780 q 364 741 300 780 q 458 706 412 711 z "},"":{"ha":694,"x_min":14,"x_max":791,"o":"m 329 113 q 477 396 380 283 q 460 518 460 450 q 480 678 460 591 q 608 637 557 669 q 685 601 666 601 q 731 623 709 601 q 762 679 753 644 q 767 709 767 696 q 761 736 767 725 q 721 757 749 757 q 629 720 705 757 q 480 680 563 687 q 557 820 509 760 q 617 907 612 888 q 618 919 618 913 q 606 947 618 935 q 553 963 588 963 q 492 946 517 963 q 459 901 467 929 q 458 895 458 899 q 475 819 458 873 q 484 751 484 789 q 477 680 484 719 q 348 720 399 688 q 270 757 289 757 q 224 735 246 757 q 193 679 203 713 q 189 648 189 662 q 195 622 189 633 q 234 601 206 601 q 326 638 250 601 q 475 678 393 670 q 326 396 423 509 q 344 271 344 340 q 324 113 344 199 q 197 153 245 121 q 124 191 140 191 q 74 170 96 191 q 41 113 52 149 q 37 83 37 96 q 43 56 37 68 q 77 35 53 35 q 174 71 96 35 q 324 111 242 104 q 248 -28 296 29 q 189 -110 193 -94 q 186 -126 186 -119 q 197 -155 186 -143 q 250 -172 213 -172 q 310 -156 284 -172 q 342 -116 336 -140 q 344 -104 344 -111 q 330 -28 344 -81 q 321 43 321 4 q 328 111 321 75 q 455 72 407 104 q 528 35 511 35 q 578 55 555 35 q 610 113 601 76 q 615 143 615 130 q 610 169 615 157 q 575 191 600 191 q 479 155 556 191 q 329 113 410 122 m 360 139 q 473 175 410 145 q 581 214 557 214 q 631 184 618 214 q 639 149 639 169 q 633 113 639 132 q 591 40 622 68 q 522 12 560 12 q 439 52 500 12 q 347 85 394 81 q 344 51 344 68 q 353 -18 344 18 q 368 -100 368 -72 q 366 -116 368 -110 q 321 -173 356 -152 q 243 -195 286 -195 q 177 -172 199 -195 q 162 -134 162 -156 q 165 -110 162 -123 q 230 -17 171 -88 q 292 85 274 36 q 179 51 243 81 q 71 12 95 12 q 21 41 35 12 q 14 77 14 57 q 18 113 14 94 q 61 185 31 157 q 130 214 92 214 q 213 174 152 214 q 307 139 258 144 q 320 257 320 199 q 298 396 320 329 q 444 652 402 515 q 332 618 393 647 q 228 578 250 578 q 174 606 189 578 q 165 644 165 622 q 170 679 165 660 q 211 751 182 722 q 276 780 240 780 q 364 741 300 780 q 458 706 412 711 q 461 742 461 724 q 451 808 461 774 q 435 890 435 865 q 436 901 435 897 q 481 963 446 940 q 560 986 515 986 q 627 965 603 986 q 643 927 643 949 q 640 907 643 918 q 575 809 633 883 q 513 706 530 753 q 623 740 563 710 q 727 780 705 780 q 782 752 766 780 q 791 715 791 736 q 785 679 791 699 q 745 607 774 636 q 679 578 715 578 q 592 616 654 578 q 498 652 544 646 q 484 532 484 591 q 505 396 484 461 q 360 139 401 276 z "},"":{"ha":503,"x_min":111,"x_max":551,"o":"m 142 487 q 134 435 134 460 q 161 353 134 389 q 279 297 201 297 q 429 353 357 297 q 520 487 500 409 q 528 538 528 513 q 501 621 528 584 q 382 675 460 675 q 233 621 304 675 q 142 487 163 566 m 119 487 q 221 637 142 575 q 389 699 300 699 q 522 637 476 699 q 551 544 551 595 q 543 487 551 517 q 440 337 520 399 q 273 274 361 274 q 140 336 185 274 q 111 430 111 378 q 119 487 111 457 z "},"":{"ha":983,"x_min":53,"x_max":985,"o":"m 83 12 l 297 12 l 345 192 l 131 192 l 83 12 m 388 12 l 602 12 l 650 192 l 436 192 l 388 12 m 693 12 l 907 12 l 956 192 l 741 192 l 693 12 m 114 215 l 374 215 l 313 -12 l 53 -12 l 114 215 m 419 215 l 680 215 l 618 -12 l 358 -12 l 419 215 m 724 215 l 985 215 l 924 -12 l 663 -12 l 724 215 z "},"":{"ha":678,"x_min":188,"x_max":850,"o":"m 410 249 l 649 249 l 459 509 l 789 768 l 550 768 l 220 509 l 410 249 m 188 509 l 547 791 l 850 791 l 492 509 l 699 226 l 395 226 l 188 509 z "},"":{"ha":678,"x_min":100,"x_max":763,"o":"m 730 509 l 541 768 l 302 768 l 492 509 l 162 249 l 401 249 l 730 509 m 404 226 l 100 226 l 459 509 l 252 791 l 556 791 l 763 509 l 404 226 z "},"":{"ha":746,"x_min":47,"x_max":943,"o":"m 903 904 l 690 904 l 88 12 l 301 12 l 903 904 m 309 -12 l 47 -12 l 682 927 l 943 927 l 309 -12 z "},"":{"ha":746,"x_min":71,"x_max":870,"o":"m 793 724 l 841 904 l 389 904 l 341 724 l 793 724 m 149 260 l 100 79 l 168 79 l 151 12 l 365 12 l 382 79 l 518 79 l 567 260 l 431 260 l 465 385 l 702 385 l 750 565 l 298 565 l 217 260 l 149 260 m 312 701 l 372 927 l 870 927 l 810 701 l 312 701 m 200 283 l 281 588 l 779 588 l 719 361 l 481 361 l 460 283 l 596 283 l 535 56 l 399 56 l 381 -12 l 121 -12 l 139 56 l 71 56 l 132 283 l 200 283 z "},"":{"ha":678,"x_min":53,"x_max":802,"o":"m 131 192 l 83 12 l 602 12 l 650 192 l 413 192 l 465 385 l 634 385 l 682 565 l 513 565 l 534 644 q 572 700 543 677 q 635 724 602 724 l 725 724 l 773 904 l 564 904 q 427 853 492 904 q 342 729 362 802 l 298 565 l 231 565 l 182 385 l 250 385 l 199 192 l 131 192 m 182 215 l 221 361 l 153 361 l 214 588 l 281 588 l 319 729 q 415 869 341 811 q 570 927 488 927 l 802 927 l 742 701 l 629 701 q 585 684 606 701 q 557 644 564 667 l 542 588 l 711 588 l 651 361 l 481 361 l 442 215 l 680 215 l 618 -12 l 53 -12 l 114 215 l 182 215 z "},"":{"ha":746,"x_min":71,"x_max":892,"o":"m 149 260 l 100 79 l 168 79 l 151 12 l 365 12 l 382 79 l 518 79 l 567 260 l 431 260 l 465 385 l 595 385 q 732 436 667 385 q 817 559 797 487 l 862 729 q 869 777 869 754 q 844 853 869 819 q 734 904 806 904 l 389 904 l 341 724 l 567 724 q 616 701 600 724 q 628 665 628 684 q 625 644 628 655 q 587 588 616 612 q 524 565 557 565 l 298 565 l 217 260 l 149 260 m 200 283 l 281 588 l 530 588 q 574 605 553 588 q 602 644 595 621 q 604 659 604 652 q 596 684 604 673 q 561 701 584 701 l 312 701 l 372 927 l 740 927 q 865 869 822 927 q 892 782 892 831 q 885 729 892 757 l 840 559 q 744 419 818 477 q 589 361 671 361 l 481 361 l 460 283 l 596 283 l 535 56 l 399 56 l 381 -12 l 121 -12 l 139 56 l 71 56 l 132 283 l 200 283 z "},"":{"ha":678,"x_min":153,"x_max":870,"o":"m 634 385 l 682 565 l 513 565 l 534 644 q 572 700 543 677 q 635 724 602 724 l 793 724 l 841 904 l 564 904 q 427 853 492 904 q 342 729 362 802 l 298 565 l 231 565 l 182 385 l 250 385 l 197 186 q 191 139 191 161 q 216 63 191 96 q 326 12 253 12 l 602 12 l 650 192 l 492 192 q 443 216 460 192 q 431 250 431 231 q 434 271 431 260 l 465 385 l 634 385 m 481 361 l 457 271 q 455 256 455 264 q 463 232 455 243 q 498 215 475 215 l 680 215 l 618 -12 l 319 -12 q 195 47 237 -12 q 167 133 167 84 q 174 186 167 158 l 221 361 l 153 361 l 214 588 l 281 588 l 319 729 q 415 869 341 811 q 570 927 488 927 l 870 927 l 810 701 l 629 701 q 585 684 606 701 q 557 644 564 667 l 542 588 l 711 588 l 651 361 l 481 361 z "},"":{"ha":780,"x_min":176,"x_max":948,"o":"m 391 469 l 487 469 l 582 823 q 585 844 585 834 q 574 880 585 865 q 522 904 556 904 l 321 904 l 300 825 l 441 825 q 471 812 460 825 q 477 793 477 804 q 475 780 477 787 l 391 469 m 372 734 l 276 734 l 205 469 l 300 469 l 372 734 m 745 469 q 809 493 779 469 q 848 551 839 517 l 921 823 q 924 844 924 834 q 913 880 924 865 q 861 904 895 904 l 743 904 q 678 880 709 904 q 639 823 648 857 l 566 551 q 563 529 563 540 q 574 494 563 509 q 626 469 592 469 l 745 469 m 696 593 q 695 589 695 591 q 699 578 695 583 q 713 571 704 571 q 730 578 722 571 q 741 593 739 585 l 791 780 q 791 787 791 783 q 789 796 791 791 q 774 802 784 802 q 757 796 766 802 q 746 780 749 789 l 696 593 m 452 780 q 452 787 452 783 q 450 796 452 791 q 435 802 445 802 l 271 802 l 304 927 l 528 927 q 594 897 572 927 q 609 850 609 876 q 605 823 609 838 l 504 446 l 362 446 l 452 780 m 317 446 l 176 446 l 259 758 l 401 758 l 317 446 m 620 446 q 554 477 576 446 q 539 524 539 498 q 543 551 539 536 l 616 823 q 666 897 627 866 q 749 927 705 927 l 867 927 q 933 897 911 927 q 948 850 948 876 q 944 823 948 838 l 871 551 q 821 477 860 508 q 739 446 782 446 l 620 446 m 723 780 q 745 812 728 799 q 781 825 762 825 q 810 812 800 825 q 816 793 816 804 q 814 780 816 787 l 764 593 q 742 562 759 575 q 707 548 726 548 q 678 562 688 548 q 671 583 671 571 q 673 593 671 587 l 723 780 z "},"":{"ha":916,"x_min":260,"x_max":1050,"o":"m 361 734 l 290 469 l 385 469 l 456 734 l 361 734 m 566 825 l 587 904 l 321 904 l 300 825 l 566 825 m 832 469 l 928 469 l 1023 823 q 1025 844 1025 834 q 1015 880 1025 865 q 963 904 997 904 l 644 904 l 623 825 l 882 825 q 911 812 901 825 q 918 793 918 804 q 916 780 918 787 l 832 469 m 846 734 l 751 734 l 680 469 l 775 469 l 846 734 m 694 734 l 598 734 l 527 469 l 623 469 l 694 734 m 486 758 l 402 446 l 260 446 l 344 758 l 486 758 m 271 802 l 304 927 l 616 927 l 583 802 l 271 802 m 892 780 q 893 787 893 783 q 890 796 893 791 q 876 802 886 802 l 593 802 l 627 927 l 969 927 q 1035 897 1013 927 q 1050 850 1050 876 q 1046 823 1050 838 l 945 446 l 803 446 l 892 780 m 792 446 l 650 446 l 734 758 l 876 758 l 792 446 m 640 446 l 498 446 l 581 758 l 723 758 l 640 446 z "},"":{"ha":1119,"x_min":0,"x_max":1017,"o":"m 136 0 q 0 136 0 0 l 0 882 q 136 1017 0 1017 l 882 1017 q 1017 882 1017 1017 l 1017 136 q 882 0 1017 0 l 136 0 m 882 17 q 1000 136 1000 17 l 1000 882 q 882 1000 1000 1000 l 136 1000 q 17 882 18 1000 l 17 136 q 136 17 18 17 l 882 17 z "},"":{"ha":1119,"x_min":0,"x_max":1017,"o":"m 136 0 q 0 136 0 0 l 0 882 q 136 1017 0 1017 l 882 1017 q 1017 882 1017 1017 l 1017 136 q 882 0 1017 0 l 136 0 m 882 17 q 1000 136 1000 17 l 1000 882 q 882 1000 1000 1000 l 136 1000 q 17 882 18 1000 l 17 136 q 136 17 18 17 l 882 17 z "},"":{"ha":1119,"x_min":0,"x_max":1017,"o":"m 136 0 q 0 136 0 0 l 0 882 q 136 1017 0 1017 l 882 1017 q 1017 882 1017 1017 l 1017 136 q 882 0 1017 0 l 136 0 m 882 17 q 1000 136 1000 17 l 1000 882 q 882 1000 1000 1000 l 136 1000 q 17 882 18 1000 l 17 136 q 136 17 18 17 l 882 17 z "},"":{"ha":1119,"x_min":0,"x_max":1017,"o":"m 136 0 q 0 136 0 0 l 0 882 q 136 1017 0 1017 l 882 1017 q 1017 882 1017 1017 l 1017 136 q 882 0 1017 0 l 136 0 m 882 17 q 1000 136 1000 17 l 1000 882 q 882 1000 1000 1000 l 136 1000 q 17 882 18 1000 l 17 136 q 136 17 18 17 l 882 17 z "},"":{"ha":678,"x_min":153,"x_max":779,"o":"m 702 385 l 750 565 l 231 565 l 182 385 l 702 385 m 153 361 l 214 588 l 779 588 l 719 361 l 153 361 z "},"":{"ha":1119,"x_min":0,"x_max":1017,"o":"m 136 0 q 0 136 0 0 l 0 882 q 136 1017 0 1017 l 882 1017 q 1017 882 1017 1017 l 1017 136 q 882 0 1017 0 l 136 0 m 882 17 q 1000 136 1000 17 l 1000 882 q 882 1000 1000 1000 l 136 1000 q 17 882 18 1000 l 17 136 q 136 17 18 17 l 882 17 z "},"":{"ha":1119,"x_min":0,"x_max":1017,"o":"m 136 0 q 0 136 0 0 l 0 882 q 136 1017 0 1017 l 882 1017 q 1017 882 1017 1017 l 1017 136 q 882 0 1017 0 l 136 0 m 882 17 q 1000 136 1000 17 l 1000 882 q 882 1000 1000 1000 l 136 1000 q 17 882 18 1000 l 17 136 q 136 17 18 17 l 882 17 z "},"":{"ha":1119,"x_min":0,"x_max":1017,"o":"m 136 0 q 0 136 0 0 l 0 882 q 136 1017 0 1017 l 882 1017 q 1017 882 1017 1017 l 1017 136 q 882 0 1017 0 l 136 0 m 882 17 q 1000 136 1000 17 l 1000 882 q 882 1000 1000 1000 l 136 1000 q 17 882 18 1000 l 17 136 q 136 17 18 17 l 882 17 z "},"":{"ha":102,"x_min":0,"x_max":0,"o":""},"":{"ha":102,"x_min":0,"x_max":0,"o":""},"":{"ha":1051,"x_min":99,"x_max":1243,"o":"m 389 271 q 387 256 387 264 q 395 232 387 243 q 431 215 408 215 q 475 232 454 215 q 502 271 496 248 l 602 644 q 604 659 604 652 q 596 684 604 673 q 561 701 584 701 q 517 684 538 701 q 490 644 496 667 l 389 271 m 496 904 q 359 853 424 904 q 275 729 294 802 l 130 186 q 123 139 123 161 q 148 63 123 96 q 258 12 185 12 l 975 12 l 1023 192 l 718 192 l 770 385 l 1007 385 l 1055 565 l 818 565 l 861 724 l 1166 724 l 1214 904 l 496 904 m 467 644 q 505 700 475 677 q 567 724 534 724 q 616 701 600 724 q 628 665 628 684 q 625 644 628 655 l 525 271 q 487 215 516 239 q 425 192 457 192 q 375 216 392 192 q 363 250 363 231 q 366 271 363 260 l 467 644 m 1243 927 l 1183 701 l 878 701 l 847 588 l 1084 588 l 1024 361 l 787 361 l 747 215 l 1053 215 l 991 -12 l 251 -12 q 127 47 169 -12 q 99 133 99 84 q 106 186 99 158 l 252 729 q 347 869 273 811 q 503 927 420 927 l 1243 927 z "},"":{"ha":1119,"x_min":99,"x_max":1211,"o":"m 389 271 q 387 256 387 264 q 395 232 387 243 q 431 215 408 215 q 475 232 454 215 q 502 271 496 248 l 547 441 q 549 456 549 448 q 541 481 549 469 q 506 497 529 497 q 462 480 483 497 q 435 441 441 464 l 389 271 m 924 452 q 924 456 924 454 q 914 481 924 467 q 879 497 902 497 q 835 480 856 497 q 811 452 814 464 l 924 452 m 568 30 q 631 12 597 12 l 975 12 l 1023 191 l 718 192 l 733 249 l 1106 249 l 1181 526 q 1187 572 1187 550 q 1162 650 1187 615 q 1053 701 1125 701 l 815 701 q 743 682 781 701 q 680 701 713 701 l 442 701 q 304 649 370 701 q 220 526 239 598 l 130 186 q 123 139 123 161 q 148 63 123 96 q 258 12 185 12 l 495 12 q 568 30 529 12 m 412 441 q 450 497 420 473 q 513 520 480 520 q 562 497 545 520 q 573 462 573 481 q 570 441 573 452 l 525 271 q 487 215 516 239 q 425 192 457 192 q 375 216 392 192 q 363 250 363 231 q 366 271 363 260 l 412 441 m 782 429 q 823 497 793 473 q 886 520 853 520 q 935 497 918 520 q 945 462 945 483 q 941 429 945 447 l 782 429 m 561 4 q 488 -12 528 -12 l 251 -12 q 127 47 169 -12 q 99 133 99 84 q 106 186 99 158 l 197 526 q 293 666 219 608 q 448 724 366 724 l 686 724 q 749 708 725 724 q 821 724 782 724 l 1059 724 q 1183 666 1141 724 q 1211 578 1211 627 q 1204 526 1211 553 l 1123 226 l 750 226 l 747 215 l 1053 214 l 991 -12 l 624 -12 q 561 4 585 -12 z "},"":{"ha":1458,"x_min":77,"x_max":1522,"o":"m 471 576 q 469 562 469 569 q 477 537 469 548 q 513 520 490 520 q 557 537 536 520 q 584 576 578 553 l 602 644 q 604 659 604 652 q 596 684 604 673 q 561 701 584 701 q 517 684 538 701 q 490 644 496 667 l 471 576 m 728 271 q 726 256 726 264 q 734 232 726 243 q 770 215 747 215 q 814 232 793 215 q 841 271 835 248 l 859 339 q 861 354 861 347 q 853 379 861 368 q 818 395 841 395 q 774 379 795 395 q 747 339 753 362 l 728 271 m 1101 271 q 1099 256 1099 264 q 1107 232 1099 243 q 1143 215 1120 215 q 1187 232 1166 215 q 1214 271 1208 248 l 1232 339 q 1234 354 1234 347 q 1226 379 1234 368 q 1191 395 1214 395 q 1147 379 1168 395 q 1120 339 1126 362 l 1101 271 m 905 24 q 970 12 935 12 l 1207 12 q 1344 63 1280 12 q 1429 186 1409 114 l 1492 424 q 1499 471 1499 449 q 1474 548 1499 514 q 1364 599 1437 599 l 1127 599 q 1056 586 1093 599 q 991 599 1026 599 l 919 599 l 1204 904 l 960 904 l 867 804 q 844 853 855 838 q 734 904 806 904 l 496 904 q 359 853 424 904 q 275 729 294 802 l 211 492 q 205 445 205 467 q 229 368 205 402 q 339 317 267 317 l 412 317 l 127 12 l 370 12 l 464 112 q 487 63 475 79 q 597 12 524 12 l 834 12 q 905 24 869 12 m 467 644 q 505 700 475 677 q 567 724 534 724 q 616 701 600 724 q 628 665 628 684 q 625 644 628 655 l 607 576 q 568 520 598 544 q 506 497 538 497 q 456 521 473 497 q 446 555 446 536 q 448 576 446 566 l 467 644 m 724 339 q 762 395 732 372 q 824 418 791 418 q 874 395 857 418 q 885 360 885 380 q 882 339 885 350 l 864 271 q 826 215 855 239 q 764 192 796 192 q 714 216 731 192 q 703 250 703 231 q 705 271 703 260 l 724 339 m 1097 339 q 1135 395 1105 372 q 1197 418 1164 418 q 1247 395 1230 418 q 1258 360 1258 380 q 1255 339 1258 350 l 1237 271 q 1199 215 1228 239 q 1137 192 1169 192 q 1087 216 1104 192 q 1076 250 1076 231 q 1078 271 1076 260 l 1097 339 m 899 0 q 827 -12 866 -12 l 590 -12 q 466 47 508 -12 q 451 68 453 64 l 376 -12 l 77 -12 l 362 294 l 333 294 q 209 352 251 294 q 180 439 180 390 q 188 492 180 464 l 252 729 q 347 869 273 811 q 503 927 420 927 l 740 927 q 865 869 822 927 q 880 847 878 851 l 954 927 l 1253 927 l 968 622 l 998 622 q 1062 610 1036 622 q 1133 622 1095 622 l 1371 622 q 1495 564 1453 622 q 1522 477 1522 526 q 1515 424 1522 452 l 1452 186 q 1356 46 1430 104 q 1200 -12 1282 -12 l 963 -12 q 899 0 924 -12 z "}}}
